<?xml version="1.0" encoding="UTF-8"?>
<!DOCTYPE svg PUBLIC "-//W3C//DTD SVG 1.1//EN" "http://www.w3.org/Graphics/SVG/1.1/DTD/svg11.dtd">
<svg xmlns="http://www.w3.org/2000/svg" version="1.1" width="578px" height="431px" style="shape-rendering:geometricPrecision; text-rendering:geometricPrecision; image-rendering:optimizeQuality; fill-rule:evenodd; clip-rule:evenodd" xmlns:xlink="http://www.w3.org/1999/xlink">
<g><path style="opacity:1" fill="#1e80b7" d="M 321.5,53.5 C 317.409,50.856 313.409,48.0227 309.5,45C 308.216,44.3162 307.049,44.4829 306,45.5C 302.892,43.4278 299.725,41.4278 296.5,39.5C 293.914,38.52 291.247,38.1866 288.5,38.5C 288.5,37.5 288.5,36.5 288.5,35.5C 280.493,35.3336 272.493,35.5003 264.5,36C 260.252,37.6012 256.252,39.6012 252.5,42C 250.26,42.977 247.927,43.477 245.5,43.5C 257.708,34.6874 271.375,31.5208 286.5,34C 298.958,36.3961 309.958,41.7295 319.5,50C 320.823,50.8159 321.489,51.9826 321.5,53.5 Z"/></g>
<g><path style="opacity:1" fill="#0374c6" d="M 113.5,44.5 C 113.833,44.5 114.167,44.5 114.5,44.5C 125.145,43.0302 131.312,47.3635 133,57.5C 129.626,59.1482 129.126,61.1482 131.5,63.5C 130.908,65.4225 129.908,67.0892 128.5,68.5C 125.568,68.2843 122.902,68.951 120.5,70.5C 118.079,68.7622 115.412,67.4289 112.5,66.5C 113.025,65.8076 113.692,65.3076 114.5,65C 112.866,64.5065 111.199,64.3398 109.5,64.5C 109.656,61.9339 109.322,59.4339 108.5,57C 109.161,54.536 109.661,52.036 110,49.5C 111.802,48.2107 112.969,46.5441 113.5,44.5 Z"/></g>
<g><path style="opacity:1" fill="#0386cf" d="M 321.5,53.5 C 324.973,55.6367 327.306,58.6367 328.5,62.5C 327.789,66.3246 328.955,69.3246 332,71.5C 332.118,74.3713 332.784,77.038 334,79.5C 334.497,82.146 334.664,84.8127 334.5,87.5C 334.315,89.1958 333.481,90.5291 332,91.5C 330.409,88.6484 329.076,85.6484 328,82.5C 325.55,85.3782 324.884,88.7115 326,92.5C 326.333,91.5 326.667,90.5 327,89.5C 328.321,92.7698 328.987,96.1031 329,99.5C 328.667,98.8333 328.333,98.1667 328,97.5C 326.384,101.347 325.384,105.347 325,109.5C 324.692,108.692 324.192,108.025 323.5,107.5C 322.859,108.993 321.859,109.993 320.5,110.5C 324.211,103.271 325.377,95.6047 324,87.5C 323.722,86.5842 323.222,85.9175 322.5,85.5C 322.37,81.4754 321.37,77.8088 319.5,74.5C 311.237,56.9543 297.237,47.6209 277.5,46.5C 269.708,46.9473 262.375,48.9473 255.5,52.5C 254.504,52.5858 253.671,52.2524 253,51.5C 249.741,53.139 246.241,54.3056 242.5,55C 243.167,55.3333 243.833,55.6667 244.5,56C 243,56.8333 241.833,58 241,59.5C 239.957,56.888 238.457,54.5547 236.5,52.5C 237.325,51.6143 238.325,51.281 239.5,51.5C 239.22,48.6118 240.553,47.1118 243.5,47C 244.305,45.8873 244.972,44.7206 245.5,43.5C 247.927,43.477 250.26,42.977 252.5,42C 256.252,39.6012 260.252,37.6012 264.5,36C 272.493,35.5003 280.493,35.3336 288.5,35.5C 288.5,36.5 288.5,37.5 288.5,38.5C 291.247,38.1866 293.914,38.52 296.5,39.5C 299.725,41.4278 302.892,43.4278 306,45.5C 307.049,44.4829 308.216,44.3162 309.5,45C 313.409,48.0227 317.409,50.856 321.5,53.5 Z"/></g>
<g><path style="opacity:1" fill="#46d5fa" d="M 319.5,74.5 C 319.649,75.552 319.483,76.552 319,77.5C 311.978,65.7223 301.811,57.889 288.5,54C 271.923,51.2662 257.423,55.4329 245,66.5C 246.43,64.2899 246.93,61.9566 246.5,59.5C 249.214,56.7846 252.214,54.4512 255.5,52.5C 262.375,48.9473 269.708,46.9473 277.5,46.5C 297.237,47.6209 311.237,56.9543 319.5,74.5 Z"/></g>
<g><path style="opacity:1" fill="#03bcf4" d="M 319.5,74.5 C 321.37,77.8088 322.37,81.4754 322.5,85.5C 322.5,91.1667 322.5,96.8333 322.5,102.5C 320.801,102.62 319.135,102.954 317.5,103.5C 315.028,102.008 312.361,101.342 309.5,101.5C 309.5,99.5 309.5,97.5 309.5,95.5C 307.5,95.5 305.5,95.5 303.5,95.5C 303.5,92.8333 303.5,90.1667 303.5,87.5C 287.535,86.169 271.535,85.5023 255.5,85.5C 255.666,95.5056 255.5,105.506 255,115.5C 253.881,112.709 251.881,111.043 249,110.5C 246.461,111.602 243.961,111.602 241.5,110.5C 240.029,111.381 239.196,112.714 239,114.5C 233.054,104.698 230.887,94.0315 232.5,82.5C 234.686,73.3159 239.353,65.6493 246.5,59.5C 246.93,61.9566 246.43,64.2899 245,66.5C 257.423,55.4329 271.923,51.2662 288.5,54C 301.811,57.889 311.978,65.7223 319,77.5C 319.483,76.552 319.649,75.552 319.5,74.5 Z"/></g>
<g><path style="opacity:1" fill="#1f6ba6" d="M 128.5,68.5 C 129.908,67.0892 130.908,65.4225 131.5,63.5C 129.126,61.1482 129.626,59.1482 133,57.5C 131.312,47.3635 125.145,43.0302 114.5,44.5C 126.123,40.8281 133.123,45.1614 135.5,57.5C 135,59.5 134.5,61.5 134,63.5C 132.924,66.079 131.091,67.7457 128.5,68.5 Z"/></g>
<g><path style="opacity:0.99" fill="#b31e21" d="M 394.5,64.5 C 387.022,64.3639 379.688,63.3639 372.5,61.5C 365.402,61.9916 358.402,62.9916 351.5,64.5C 365.828,57.8989 380.161,57.8989 394.5,64.5 Z"/></g>
<g><path style="opacity:1" fill="#0887cc" d="M 245.5,43.5 C 244.972,44.7206 244.305,45.8873 243.5,47C 240.553,47.1118 239.22,48.6118 239.5,51.5C 238.325,51.281 237.325,51.6143 236.5,52.5C 238.457,54.5547 239.957,56.888 241,59.5C 241.833,58 243,56.8333 244.5,56C 243.833,55.6667 243.167,55.3333 242.5,55C 246.241,54.3056 249.741,53.139 253,51.5C 253.671,52.2524 254.504,52.5858 255.5,52.5C 252.214,54.4512 249.214,56.7846 246.5,59.5C 239.353,65.6493 234.686,73.3159 232.5,82.5C 231.778,82.9175 231.278,83.5842 231,84.5C 230.406,90.8556 230.573,97.1889 231.5,103.5C 230.732,102.737 230.232,101.737 230,100.5C 229.809,94.9171 229.309,89.4171 228.5,84C 231.112,79.3486 233.445,74.5152 235.5,69.5C 235.291,68.914 234.957,68.414 234.5,68C 235.685,66.647 237.019,65.4803 238.5,64.5C 237.667,64.1667 236.833,63.8333 236,63.5C 234.213,64.5632 232.379,65.0632 230.5,65C 232.037,63.8904 232.703,62.3904 232.5,60.5C 233.552,60.6495 234.552,60.4828 235.5,60C 233.741,59.2025 232.074,59.3691 230.5,60.5C 227.807,65.2361 224.64,69.5694 221,73.5C 220.667,73.1667 220.333,72.8333 220,72.5C 217.336,74.9554 214.502,75.122 211.5,73C 215.073,70.8675 215.073,69.3675 211.5,68.5C 211.5,69.5 211.5,70.5 211.5,71.5C 209.234,71.1412 207.401,71.8078 206,73.5C 205.692,72.6919 205.192,72.0253 204.5,71.5C 203.107,72.8631 201.441,73.6964 199.5,74C 206.929,75.3658 214.096,77.5325 221,80.5C 220.908,84.4878 220.408,88.4878 219.5,92.5C 219.709,93.086 220.043,93.586 220.5,94C 219.426,94.7387 218.759,95.7387 218.5,97C 219.382,100.441 219.716,103.941 219.5,107.5C 218.71,106.391 218.21,105.058 218,103.5C 217.993,95.989 217.826,88.6557 217.5,81.5C 206.985,76.452 195.985,74.7853 184.5,76.5C 185.038,74.8828 185.371,73.2161 185.5,71.5C 187.604,71.7989 189.604,71.4656 191.5,70.5C 192.44,67.9477 191.44,67.1144 188.5,68C 186.532,69.5442 184.365,70.7109 182,71.5C 180.226,70.035 178.392,68.7017 176.5,67.5C 178.158,66.8186 179.825,65.9853 181.5,65C 190.16,64.5002 198.827,64.3336 207.5,64.5C 212.709,65.0697 217.542,66.7364 222,69.5C 227.324,58.4847 235.157,49.8181 245.5,43.5 Z"/></g>
<g><path style="opacity:1" fill="#2168a6" d="M 113.5,44.5 C 112.969,46.5441 111.802,48.2107 110,49.5C 109.661,52.036 109.161,54.536 108.5,57C 109.322,59.4339 109.656,61.9339 109.5,64.5C 111.199,64.3398 112.866,64.5065 114.5,65C 113.692,65.3076 113.025,65.8076 112.5,66.5C 115.412,67.4289 118.079,68.7622 120.5,70.5C 122.902,68.951 125.568,68.2843 128.5,68.5C 121.354,73.006 114.854,72.006 109,65.5C 104.582,57.1191 106.082,50.1191 113.5,44.5 Z"/></g>
<g><path style="opacity:1" fill="#1e7cb2" d="M 207.5,64.5 C 198.827,64.3336 190.16,64.5002 181.5,65C 179.825,65.9853 178.158,66.8186 176.5,67.5C 173.093,69.4734 169.426,70.9734 165.5,72C 164.663,73.0113 164.33,74.1779 164.5,75.5C 163.127,75.3433 161.793,75.51 160.5,76C 159.743,77.5122 158.743,78.8455 157.5,80C 154.767,80.9042 152.433,82.4042 150.5,84.5C 165.179,65.666 184.179,58.9993 207.5,64.5 Z"/></g>
<g><path style="opacity:0.871" fill="#aa2529" d="M 344.5,68.5 C 340.805,73.4071 340.805,78.4071 344.5,83.5C 344.5,86.1667 344.5,88.8333 344.5,91.5C 343.174,85.5412 341.507,79.5412 339.5,73.5C 340.181,70.8189 341.848,69.1522 344.5,68.5 Z"/></g>
<g><path style="opacity:1" fill="#b9161f" d="M 395.5,64.5 C 404.317,68.2423 411.65,73.909 417.5,81.5C 414.944,80.4566 412.777,78.7899 411,76.5C 409.817,77.731 408.651,77.731 407.5,76.5C 405.126,74.461 403.126,72.1277 401.5,69.5C 399.591,68.6518 397.591,68.3184 395.5,68.5C 395.5,67.1667 395.5,65.8333 395.5,64.5 Z"/></g>
<g><path style="opacity:1" fill="#156eb4" d="M 468.5,87.5 C 469.64,83.9007 470.14,80.234 470,76.5C 468.833,78.1667 467.667,79.8333 466.5,81.5C 465.059,78.2638 465.392,75.2638 467.5,72.5C 465.135,68.136 461.801,66.9693 457.5,69C 459.861,70.4069 462.194,71.9069 464.5,73.5C 463.009,75.0116 461.176,76.0116 459,76.5C 457.317,73.0647 454.484,71.2314 450.5,71C 447.975,70.1041 445.808,70.6041 444,72.5C 444.38,77.0672 444.213,81.7339 443.5,86.5C 439.431,79.1372 440.764,72.6372 447.5,67C 460.422,61.4605 468.422,65.4605 471.5,79C 471.755,82.408 470.755,85.2414 468.5,87.5 Z"/></g>
<g><path style="opacity:1" fill="#f9575e" d="M 415.5,105.5 C 415.649,106.552 415.483,107.552 415,108.5C 401.016,81.7999 380.182,74.2999 352.5,86C 350.604,88.068 348.604,89.9013 346.5,91.5C 345.833,91.8333 345.167,92.1667 344.5,92.5C 344.5,92.1667 344.5,91.8333 344.5,91.5C 344.5,88.8333 344.5,86.1667 344.5,83.5C 363.877,68.7258 383.21,68.8925 402.5,84C 408.707,90.0392 413.041,97.2059 415.5,105.5 Z"/></g>
<g><path style="opacity:1" fill="#48d3fc" d="M 217.5,81.5 C 217.808,83.924 217.474,86.2573 216.5,88.5C 208.872,84.0877 200.538,82.0877 191.5,82.5C 176.627,83.4373 165.294,90.2706 157.5,103C 156.184,103.528 155.517,103.028 155.5,101.5C 161.38,88.9654 171.046,80.6321 184.5,76.5C 195.985,74.7853 206.985,76.452 217.5,81.5 Z"/></g>
<g><path style="opacity:1" fill="#01bbf4" d="M 217.5,81.5 C 217.826,88.6557 217.993,95.989 218,103.5C 218.21,105.058 218.71,106.391 219.5,107.5C 219.913,112.818 221.413,117.818 224,122.5C 227.646,127.644 231.146,132.81 234.5,138C 223.733,158.505 206.733,166.838 183.5,163C 174.417,160.418 166.751,155.585 160.5,148.5C 152.511,136.396 149.678,123.063 152,108.5C 152.898,105.931 154.065,103.598 155.5,101.5C 155.517,103.028 156.184,103.528 157.5,103C 165.294,90.2706 176.627,83.4373 191.5,82.5C 200.538,82.0877 208.872,84.0877 216.5,88.5C 217.474,86.2573 217.808,83.924 217.5,81.5 Z"/></g>
<g><path style="opacity:1" fill="#0a71c1" d="M 468.5,87.5 C 462.453,95.2297 455.12,96.3963 446.5,91C 444.859,89.871 443.859,88.371 443.5,86.5C 444.213,81.7339 444.38,77.0672 444,72.5C 445.808,70.6041 447.975,70.1041 450.5,71C 454.484,71.2314 457.317,73.0647 459,76.5C 461.176,76.0116 463.009,75.0116 464.5,73.5C 462.194,71.9069 459.861,70.4069 457.5,69C 461.801,66.9693 465.135,68.136 467.5,72.5C 465.392,75.2638 465.059,78.2638 466.5,81.5C 467.667,79.8333 468.833,78.1667 470,76.5C 470.14,80.234 469.64,83.9007 468.5,87.5 Z"/></g>
<g><path style="opacity:1" fill="#0380cc" d="M 231.5,103.5 C 235.861,119.119 245.528,130.619 260.5,138C 287.626,143.976 307.626,134.809 320.5,110.5C 321.859,109.993 322.859,108.993 323.5,107.5C 324.192,108.025 324.692,108.692 325,109.5C 325.384,105.347 326.384,101.347 328,97.5C 328.333,98.1667 328.667,98.8333 329,99.5C 328.987,96.1031 328.321,92.7698 327,89.5C 326.667,90.5 326.333,91.5 326,92.5C 324.884,88.7115 325.55,85.3782 328,82.5C 329.076,85.6484 330.409,88.6484 332,91.5C 333.481,90.5291 334.315,89.1958 334.5,87.5C 335.295,95.3301 335.295,103.33 334.5,111.5C 333.5,111.5 332.5,111.5 331.5,111.5C 330.019,115.96 329.019,120.96 328.5,126.5C 323.65,134.936 316.983,141.603 308.5,146.5C 305.213,147.161 301.88,147.661 298.5,148C 294.813,150.566 290.813,152.566 286.5,154C 280.833,154.667 275.167,154.667 269.5,154C 264.373,151.885 259.04,150.718 253.5,150.5C 251.255,149.365 248.922,148.865 246.5,149C 241.315,158.018 234.315,165.185 225.5,170.5C 216.17,173.782 206.67,176.115 197,177.5C 191.5,177 186,176.5 180.5,176C 176.729,174.065 172.729,172.898 168.5,172.5C 167.826,170.976 166.826,169.642 165.5,168.5C 167.332,167.752 168.999,166.752 170.5,165.5C 171.833,164.5 171.833,163.5 170.5,162.5C 167.997,164.495 165.164,165.829 162,166.5C 158.091,164.595 154.758,161.929 152,158.5C 151.251,157.365 151.417,156.365 152.5,155.5C 156.912,158.274 158.412,156.941 157,151.5C 154.438,150.102 154.105,148.435 156,146.5C 157.33,147.582 158.83,148.249 160.5,148.5C 166.751,155.585 174.417,160.418 183.5,163C 206.733,166.838 223.733,158.505 234.5,138C 231.146,132.81 227.646,127.644 224,122.5C 221.413,117.818 219.913,112.818 219.5,107.5C 219.716,103.941 219.382,100.441 218.5,97C 218.759,95.7387 219.426,94.7387 220.5,94C 220.043,93.586 219.709,93.086 219.5,92.5C 220.408,88.4878 220.908,84.4878 221,80.5C 214.096,77.5325 206.929,75.3658 199.5,74C 201.441,73.6964 203.107,72.8631 204.5,71.5C 205.192,72.0253 205.692,72.6919 206,73.5C 207.401,71.8078 209.234,71.1412 211.5,71.5C 211.5,70.5 211.5,69.5 211.5,68.5C 215.073,69.3675 215.073,70.8675 211.5,73C 214.502,75.122 217.336,74.9554 220,72.5C 220.333,72.8333 220.667,73.1667 221,73.5C 224.64,69.5694 227.807,65.2361 230.5,60.5C 232.074,59.3691 233.741,59.2025 235.5,60C 234.552,60.4828 233.552,60.6495 232.5,60.5C 232.703,62.3904 232.037,63.8904 230.5,65C 232.379,65.0632 234.213,64.5632 236,63.5C 236.833,63.8333 237.667,64.1667 238.5,64.5C 237.019,65.4803 235.685,66.647 234.5,68C 234.957,68.414 235.291,68.914 235.5,69.5C 233.445,74.5152 231.112,79.3486 228.5,84C 229.309,89.4171 229.809,94.9171 230,100.5C 230.232,101.737 230.732,102.737 231.5,103.5 Z"/></g>
<g><path style="opacity:1" fill="#02b9f4" d="M 232.5,82.5 C 230.887,94.0315 233.054,104.698 239,114.5C 239.196,112.714 240.029,111.381 241.5,110.5C 243.961,111.602 246.461,111.602 249,110.5C 251.881,111.043 253.881,112.709 255,115.5C 255.5,105.506 255.666,95.5056 255.5,85.5C 271.535,85.5023 287.535,86.169 303.5,87.5C 303.5,90.1667 303.5,92.8333 303.5,95.5C 305.5,95.5 307.5,95.5 309.5,95.5C 309.5,97.5 309.5,99.5 309.5,101.5C 312.361,101.342 315.028,102.008 317.5,103.5C 319.135,102.954 320.801,102.62 322.5,102.5C 322.5,96.8333 322.5,91.1667 322.5,85.5C 323.222,85.9175 323.722,86.5842 324,87.5C 325.377,95.6047 324.211,103.271 320.5,110.5C 307.626,134.809 287.626,143.976 260.5,138C 245.528,130.619 235.861,119.119 231.5,103.5C 230.573,97.1889 230.406,90.8556 231,84.5C 231.278,83.5842 231.778,82.9175 232.5,82.5 Z"/></g>
<g><path style="opacity:1" fill="#e71426" d="M 415.5,105.5 C 421.012,120.42 418.345,133.754 407.5,145.5C 386.77,166.337 364.77,167.837 341.5,150C 338.933,145.961 336.266,142.127 333.5,138.5C 333.5,138.167 333.5,137.833 333.5,137.5C 334.5,134.833 335.5,132.167 336.5,129.5C 339.111,126.867 341.278,123.867 343,120.5C 345.136,110.934 346.303,101.268 346.5,91.5C 348.604,89.9013 350.604,88.068 352.5,86C 380.182,74.2999 401.016,81.7999 415,108.5C 415.483,107.552 415.649,106.552 415.5,105.5 Z"/></g>
<g><path style="opacity:1" fill="#cd0814" d="M 394.5,64.5 C 394.833,64.5 395.167,64.5 395.5,64.5C 395.5,65.8333 395.5,67.1667 395.5,68.5C 397.591,68.3184 399.591,68.6518 401.5,69.5C 403.126,72.1277 405.126,74.461 407.5,76.5C 408.651,77.731 409.817,77.731 411,76.5C 412.777,78.7899 414.944,80.4566 417.5,81.5C 419.547,83.5496 421.214,85.883 422.5,88.5C 424.229,93.6666 425.729,98.9999 427,104.5C 428.353,111.792 428.686,119.125 428,126.5C 427.308,127.025 426.808,127.692 426.5,128.5C 427.52,130.432 427.687,132.432 427,134.5C 423.887,141.058 421.054,147.724 418.5,154.5C 417.292,155.234 415.959,155.567 414.5,155.5C 414.174,157.661 413.174,159.494 411.5,161C 406.541,162.172 401.541,162.672 396.5,162.5C 399.167,163.167 401.833,163.833 404.5,164.5C 401.703,167.696 398.37,168.696 394.5,167.5C 393.614,168.325 393.281,169.325 393.5,170.5C 390.148,170.776 387.481,169.609 385.5,167C 383.527,166.505 381.527,166.338 379.5,166.5C 379.5,167.5 379.5,168.5 379.5,169.5C 376.214,170.131 373.214,171.464 370.5,173.5C 370.167,173.167 369.833,172.833 369.5,172.5C 375.141,168.097 374.474,165.43 367.5,164.5C 363.645,164.187 360.478,165.52 358,168.5C 356.333,167.833 354.667,167.167 353,166.5C 352.411,168.863 350.911,169.863 348.5,169.5C 347.948,167.669 347.948,166.003 348.5,164.5C 348.167,164.167 347.833,163.833 347.5,163.5C 346.614,164.325 346.281,165.325 346.5,166.5C 345.127,166.657 343.793,166.49 342.5,166C 340.404,164.234 338.071,162.901 335.5,162C 333.56,159.342 331.56,156.675 329.5,154C 336.814,154.324 337.147,152.824 330.5,149.5C 329.191,151.891 328.191,151.891 327.5,149.5C 327.833,148.833 328.167,148.167 328.5,147.5C 330.235,146.943 331.902,146.61 333.5,146.5C 332.636,144.803 331.303,143.637 329.5,143C 330.733,141.333 332.067,139.833 333.5,138.5C 336.266,142.127 338.933,145.961 341.5,150C 364.77,167.837 386.77,166.337 407.5,145.5C 418.345,133.754 421.012,120.42 415.5,105.5C 413.041,97.2059 408.707,90.0392 402.5,84C 383.21,68.8925 363.877,68.7258 344.5,83.5C 340.805,78.4071 340.805,73.4071 344.5,68.5C 346.336,66.412 348.669,65.0787 351.5,64.5C 358.402,62.9916 365.402,61.9916 372.5,61.5C 379.688,63.3639 387.022,64.3639 394.5,64.5 Z"/></g>
<g><path style="opacity:1" fill="#1f7bb3" d="M 150.5,84.5 C 149.023,88.0509 147.689,91.7176 146.5,95.5C 145.914,95.2907 145.414,94.9574 145,94.5C 144.421,97.5881 143.087,100.255 141,102.5C 140.048,109.663 139.215,116.83 138.5,124C 139.95,130.506 141.283,137.006 142.5,143.5C 134.939,125.018 136.105,107.018 146,89.5C 147.049,87.3825 148.549,85.7158 150.5,84.5 Z"/></g>
<g><path style="opacity:1" fill="#0484ce" d="M 176.5,67.5 C 178.392,68.7017 180.226,70.035 182,71.5C 184.365,70.7109 186.532,69.5442 188.5,68C 191.44,67.1144 192.44,67.9477 191.5,70.5C 189.604,71.4656 187.604,71.7989 185.5,71.5C 185.371,73.2161 185.038,74.8828 184.5,76.5C 171.046,80.6321 161.38,88.9654 155.5,101.5C 154.065,103.598 152.898,105.931 152,108.5C 149.678,123.063 152.511,136.396 160.5,148.5C 158.83,148.249 157.33,147.582 156,146.5C 154.105,148.435 154.438,150.102 157,151.5C 158.412,156.941 156.912,158.274 152.5,155.5C 151.417,156.365 151.251,157.365 152,158.5C 154.758,161.929 158.091,164.595 162,166.5C 165.164,165.829 167.997,164.495 170.5,162.5C 171.833,163.5 171.833,164.5 170.5,165.5C 168.999,166.752 167.332,167.752 165.5,168.5C 166.826,169.642 167.826,170.976 168.5,172.5C 155.639,166.637 146.972,156.97 142.5,143.5C 141.283,137.006 139.95,130.506 138.5,124C 139.215,116.83 140.048,109.663 141,102.5C 143.087,100.255 144.421,97.5881 145,94.5C 145.414,94.9574 145.914,95.2907 146.5,95.5C 147.689,91.7176 149.023,88.0509 150.5,84.5C 152.433,82.4042 154.767,80.9042 157.5,80C 158.743,78.8455 159.743,77.5122 160.5,76C 161.793,75.51 163.127,75.3433 164.5,75.5C 164.33,74.1779 164.663,73.0113 165.5,72C 169.426,70.9734 173.093,69.4734 176.5,67.5 Z"/></g>
<g><path style="opacity:1" fill="#1c74b2" d="M 328.5,62.5 C 335.779,71.5787 338.779,82.0787 337.5,94C 337.673,105.819 334.673,116.653 328.5,126.5C 329.019,120.96 330.019,115.96 331.5,111.5C 332.5,111.5 333.5,111.5 334.5,111.5C 335.295,103.33 335.295,95.3301 334.5,87.5C 334.664,84.8127 334.497,82.146 334,79.5C 332.784,77.038 332.118,74.3713 332,71.5C 328.955,69.3246 327.789,66.3246 328.5,62.5 Z"/></g>
<g><path style="opacity:1" fill="#bd232c" d="M 346.5,91.5 C 346.303,101.268 345.136,110.934 343,120.5C 341.278,123.867 339.111,126.867 336.5,129.5C 342.478,117.918 345.144,105.585 344.5,92.5C 345.167,92.1667 345.833,91.8333 346.5,91.5 Z"/></g>
<g><path style="opacity:1" fill="#b0121a" d="M 422.5,88.5 C 434.275,108.638 434.441,128.971 423,149.5C 421.951,151.618 420.451,153.284 418.5,154.5C 421.054,147.724 423.887,141.058 427,134.5C 427.687,132.432 427.52,130.432 426.5,128.5C 426.808,127.692 427.308,127.025 428,126.5C 428.686,119.125 428.353,111.792 427,104.5C 425.729,98.9999 424.229,93.6666 422.5,88.5 Z"/></g>
<g><path style="opacity:0.847" fill="#99171b" d="M 336.5,129.5 C 335.5,132.167 334.5,134.833 333.5,137.5C 330.712,140.036 327.712,142.369 324.5,144.5C 328.53,139.476 332.53,134.476 336.5,129.5 Z"/></g>
<g><path style="opacity:1" fill="#2477b0" d="M 308.5,146.5 C 308.047,147.458 307.381,148.292 306.5,149C 293.471,155.679 279.804,157.679 265.5,155C 261.14,154.162 257.14,152.662 253.5,150.5C 259.04,150.718 264.373,151.885 269.5,154C 275.167,154.667 280.833,154.667 286.5,154C 290.813,152.566 294.813,150.566 298.5,148C 301.88,147.661 305.213,147.161 308.5,146.5 Z"/></g>
<g><path style="opacity:1" fill="#bc0911" d="M 333.5,137.5 C 333.5,137.833 333.5,138.167 333.5,138.5C 332.067,139.833 330.733,141.333 329.5,143C 331.303,143.637 332.636,144.803 333.5,146.5C 331.902,146.61 330.235,146.943 328.5,147.5C 328.167,148.167 327.833,148.833 327.5,149.5C 328.191,151.891 329.191,151.891 330.5,149.5C 337.147,152.824 336.814,154.324 329.5,154C 331.56,156.675 333.56,159.342 335.5,162C 338.071,162.901 340.404,164.234 342.5,166C 343.793,166.49 345.127,166.657 346.5,166.5C 346.281,165.325 346.614,164.325 347.5,163.5C 347.833,163.833 348.167,164.167 348.5,164.5C 347.948,166.003 347.948,167.669 348.5,169.5C 350.911,169.863 352.411,168.863 353,166.5C 354.667,167.167 356.333,167.833 358,168.5C 360.478,165.52 363.645,164.187 367.5,164.5C 374.474,165.43 375.141,168.097 369.5,172.5C 369.833,172.833 370.167,173.167 370.5,173.5C 373.214,171.464 376.214,170.131 379.5,169.5C 379.5,168.5 379.5,167.5 379.5,166.5C 381.527,166.338 383.527,166.505 385.5,167C 387.481,169.609 390.148,170.776 393.5,170.5C 393.281,169.325 393.614,168.325 394.5,167.5C 398.37,168.696 401.703,167.696 404.5,164.5C 401.833,163.833 399.167,163.167 396.5,162.5C 401.541,162.672 406.541,162.172 411.5,161C 413.174,159.494 414.174,157.661 414.5,155.5C 415.959,155.567 417.292,155.234 418.5,154.5C 413.986,161.933 407.653,167.267 399.5,170.5C 395.447,171.35 391.447,172.516 387.5,174C 382.5,174.5 377.5,175 372.5,175.5C 365.517,174.164 358.517,173.164 351.5,172.5C 338.328,167.836 328.328,159.336 321.5,147C 322.373,145.955 323.373,145.122 324.5,144.5C 327.712,142.369 330.712,140.036 333.5,137.5 Z"/></g>
<g><path style="opacity:1" fill="#156bb0" d="M 123.5,174.5 C 121.827,173.657 120.66,172.324 120,170.5C 118.898,158.604 124.064,154.438 135.5,158C 140.994,162.465 141.828,167.632 138,173.5C 133.305,178.151 128.472,178.484 123.5,174.5 Z"/></g>
<g><path style="opacity:1" fill="#0373c8" d="M 123.5,174.5 C 122.395,172.287 122.395,170.12 123.5,168C 122.552,167.517 121.552,167.351 120.5,167.5C 121.215,159.135 125.548,156.468 133.5,159.5C 135.435,160.068 136.768,161.235 137.5,163C 136.006,165.639 135.339,168.472 135.5,171.5C 133.8,171.374 132.3,170.707 131,169.5C 129.831,170.009 128.998,170.842 128.5,172C 130.002,172.583 131.335,173.416 132.5,174.5C 129.554,175.321 126.554,175.321 123.5,174.5 Z"/></g>
<g><path style="opacity:1" fill="#dc1725" d="M 434.5,175.5 C 432.012,174.26 430.179,172.26 429,169.5C 428.22,167.613 428.387,165.946 429.5,164.5C 431.033,162.645 432.7,160.812 434.5,159C 444.084,156.266 448.584,159.766 448,169.5C 445.09,174.863 440.59,176.863 434.5,175.5 Z"/></g>
<g><path style="opacity:0.863" fill="#b1222c" d="M 434.5,175.5 C 440.59,176.863 445.09,174.863 448,169.5C 448.584,159.766 444.084,156.266 434.5,159C 432.7,160.812 431.033,162.645 429.5,164.5C 432.362,156.619 437.695,154.452 445.5,158C 451.124,164.368 450.791,170.368 444.5,176C 440.901,178.118 437.568,177.951 434.5,175.5 Z"/></g>
<g><path style="opacity:0.943" fill="#a41417" d="M 399.5,170.5 C 383.769,178.656 367.769,179.323 351.5,172.5C 358.517,173.164 365.517,174.164 372.5,175.5C 377.5,175 382.5,174.5 387.5,174C 391.447,172.516 395.447,171.35 399.5,170.5 Z"/></g>
<g><path style="opacity:0.894" fill="#1773b1" d="M 225.5,170.5 C 206.841,181.667 187.841,182.334 168.5,172.5C 172.729,172.898 176.729,174.065 180.5,176C 186,176.5 191.5,177 197,177.5C 206.67,176.115 216.17,173.782 225.5,170.5 Z"/></g>
<g><path style="opacity:1" fill="#0370c2" d="M 471.5,194.5 C 472.263,193.732 473.263,193.232 474.5,193C 493.176,192.167 511.842,192.334 530.5,193.5C 534.851,194.869 539.185,196.203 543.5,197.5C 547.544,200.543 550.877,204.209 553.5,208.5C 552.876,208.917 552.543,209.584 552.5,210.5C 552.691,215.935 553.858,221.268 556,226.5C 556.5,233.492 556.666,240.492 556.5,247.5C 555.178,247.67 554.011,247.337 553,246.5C 552.667,248.167 552.333,249.833 552,251.5C 551.333,248.833 550.667,248.833 550,251.5C 549.178,254.117 548.678,256.784 548.5,259.5C 550.467,259.261 552.301,259.594 554,260.5C 555.589,263.307 556.089,266.14 555.5,269C 556.667,270.167 557.833,271.333 559,272.5C 559.282,276.039 559.782,279.539 560.5,283C 560.37,284.059 559.87,284.892 559,285.5C 558.667,291.833 558.333,298.167 558,304.5C 556.844,303.007 556.01,303.174 555.5,305C 554.268,307.151 554.268,309.317 555.5,311.5C 553.871,315.085 552.538,318.752 551.5,322.5C 551.5,322.833 551.5,323.167 551.5,323.5C 550.325,323.281 549.325,323.614 548.5,324.5C 547.345,327.995 545.012,329.995 541.5,330.5C 541.714,328.467 541.214,326.467 540,324.5C 536.393,328.422 532.226,329.255 527.5,327C 530.215,326.125 531.548,324.292 531.5,321.5C 529.712,321.785 528.045,321.452 526.5,320.5C 527.32,318.889 528.654,318.222 530.5,318.5C 530.704,315.455 530.704,312.621 530.5,310C 533.383,307.467 534.05,304.467 532.5,301C 533.009,299.831 533.842,298.998 535,298.5C 535.253,293.961 535.753,289.461 536.5,285C 535.144,280.417 534.811,275.917 535.5,271.5C 537.167,271.5 538.833,271.5 540.5,271.5C 540.84,269.009 541.84,266.842 543.5,265C 543.167,264.167 542.833,263.333 542.5,262.5C 539.877,265.625 537.044,268.625 534,271.5C 533.623,270.058 532.79,269.058 531.5,268.5C 530.504,268.586 529.671,268.252 529,267.5C 527.306,265.76 526.139,263.76 525.5,261.5C 520.61,260.367 515.943,258.534 511.5,256C 501.813,255.694 492.147,255.194 482.5,254.5C 482.279,251.721 482.612,249.054 483.5,246.5C 498.597,246.967 513.597,246.467 528.5,245C 529.676,243.326 531.01,241.826 532.5,240.5C 531.7,233.216 531.2,225.883 531,218.5C 526.12,216.532 521.12,216.198 516,217.5C 502.835,216.096 489.669,215.763 476.5,216.5C 477.025,217.192 477.692,217.692 478.5,218C 475.726,218.624 473.726,220.124 472.5,222.5C 470.469,224.522 468.135,226.189 465.5,227.5C 464.178,227.67 463.011,227.337 462,226.5C 460.923,231.406 458.423,235.406 454.5,238.5C 455.98,240.544 455.48,241.878 453,242.5C 452.05,241.978 451.216,241.311 450.5,240.5C 449.548,242.045 449.215,243.712 449.5,245.5C 448.952,247.394 447.952,249.06 446.5,250.5C 445.717,248.712 444.384,247.712 442.5,247.5C 443.504,246.317 444.338,244.984 445,243.5C 445.667,236.167 445.667,228.833 445,221.5C 442.075,219.232 438.908,217.232 435.5,215.5C 413.818,216.078 391.151,216.078 367.5,215.5C 367.657,214.127 367.49,212.793 367,211.5C 362.405,211.697 359.905,214.03 359.5,218.5C 358.531,219.309 357.698,220.309 357,221.5C 356.93,228.939 356.263,236.272 355,243.5C 353.25,240.754 352.25,237.754 352,234.5C 350.938,235.899 349.605,236.899 348,237.5C 346.508,235.374 344.841,233.374 343,231.5C 340.895,228.989 341.062,226.656 343.5,224.5C 343.167,224.167 342.833,223.833 342.5,223.5C 340.568,224.52 338.568,224.687 336.5,224C 334.123,220.764 331.123,218.597 327.5,217.5C 323.634,215.736 319.967,213.736 316.5,211.5C 317.007,210.141 318.007,209.141 319.5,208.5C 317.56,207.472 315.56,207.472 313.5,208.5C 297.328,204.108 281.328,204.775 265.5,210.5C 262.984,210.245 260.65,209.411 258.5,208C 259.448,207.517 260.448,207.351 261.5,207.5C 261.5,204.833 261.5,202.167 261.5,199.5C 263.167,199.5 264.833,199.5 266.5,199.5C 266.5,196.833 266.5,194.167 266.5,191.5C 263.412,191.803 261.746,190.47 261.5,187.5C 262.404,186.791 262.737,185.791 262.5,184.5C 270.807,183.023 279.14,181.523 287.5,180C 292.533,179.171 297.533,179.338 302.5,180.5C 301.494,181.396 301.494,182.062 302.5,182.5C 305.399,181.358 308.399,180.692 311.5,180.5C 311.561,183.05 312.894,184.55 315.5,185C 318.863,185.545 321.863,186.878 324.5,189C 329.19,189.503 333.857,190.17 338.5,191C 340.5,191.667 341.833,193 342.5,195C 349.412,195.688 356.245,195.188 363,193.5C 385.333,194.167 407.667,194.833 430,195.5C 435.345,195.062 440.345,194.729 445,194.5C 446.629,195.565 447.796,196.899 448.5,198.5C 449.192,197.975 449.692,197.308 450,196.5C 454.021,198.531 458.188,198.864 462.5,197.5C 465.296,199.653 468.296,199.82 471.5,198C 470.5,197.667 469.5,197.333 468.5,197C 469.942,196.623 470.942,195.79 471.5,194.5 Z"/></g>
<g><path style="opacity:0.925" fill="#1d69a2" d="M 389.5,190.5 C 408.194,190.218 426.861,190.552 445.5,191.5C 427.671,192.662 409.671,192.829 391.5,192C 390.584,191.722 389.918,191.222 389.5,190.5 Z"/></g>
<g><path style="opacity:0.675" fill="#23669f" d="M 543.5,197.5 C 539.185,196.203 534.851,194.869 530.5,193.5C 511.842,192.334 493.176,192.167 474.5,193C 473.263,193.232 472.263,193.732 471.5,194.5C 468.833,194.833 466.167,195.167 463.5,195.5C 466.614,194.044 469.948,192.878 473.5,192C 492.838,190.033 512.171,190.033 531.5,192C 535.95,193.061 539.95,194.895 543.5,197.5 Z"/></g>
<g><path style="opacity:1" fill="#156db4" d="M 389.5,190.5 C 389.918,191.222 390.584,191.722 391.5,192C 409.671,192.829 427.671,192.662 445.5,191.5C 449.3,193.234 452.966,195.234 456.5,197.5C 458.729,196.423 461.063,195.756 463.5,195.5C 466.167,195.167 468.833,194.833 471.5,194.5C 470.942,195.79 469.942,196.623 468.5,197C 469.5,197.333 470.5,197.667 471.5,198C 468.296,199.82 465.296,199.653 462.5,197.5C 458.188,198.864 454.021,198.531 450,196.5C 449.692,197.308 449.192,197.975 448.5,198.5C 447.796,196.899 446.629,195.565 445,194.5C 440.345,194.729 435.345,195.062 430,195.5C 407.667,194.833 385.333,194.167 363,193.5C 356.245,195.188 349.412,195.688 342.5,195C 341.833,193 340.5,191.667 338.5,191C 333.857,190.17 329.19,189.503 324.5,189C 321.863,186.878 318.863,185.545 315.5,185C 312.894,184.55 311.561,183.05 311.5,180.5C 308.399,180.692 305.399,181.358 302.5,182.5C 301.494,182.062 301.494,181.396 302.5,180.5C 297.533,179.338 292.533,179.171 287.5,180C 279.14,181.523 270.807,183.023 262.5,184.5C 262.737,185.791 262.404,186.791 261.5,187.5C 259.8,187.626 258.3,188.293 257,189.5C 255.535,188.67 254.035,188.504 252.5,189C 250.283,190.275 247.949,191.275 245.5,192C 244.015,195.665 241.349,197.498 237.5,197.5C 237.567,200.766 235.901,202.266 232.5,202C 231.87,203.892 230.87,205.559 229.5,207C 228.451,207.492 227.451,207.326 226.5,206.5C 224.359,209.019 222.359,209.019 220.5,206.5C 221.167,205.833 221.833,205.167 222.5,204.5C 219.557,201.889 216.557,199.556 213.5,197.5C 218.354,199.51 222.854,202.176 227,205.5C 252.531,180.574 282.698,172.407 317.5,181C 328.123,184.145 338.123,188.645 347.5,194.5C 349.795,193.568 352.129,192.735 354.5,192C 366.162,191.334 377.829,190.834 389.5,190.5 Z"/></g>
<g><path style="opacity:1" fill="#3177b2" d="M 316.5,211.5 C 301.674,206.813 286.674,206.313 271.5,210C 267.114,212.193 262.78,214.36 258.5,216.5C 258.5,215.5 258.5,214.5 258.5,213.5C 261.241,213.293 263.574,212.293 265.5,210.5C 281.328,204.775 297.328,204.108 313.5,208.5C 315.56,207.472 317.56,207.472 319.5,208.5C 318.007,209.141 317.007,210.141 316.5,211.5 Z"/></g>
<g><path style="opacity:1" fill="#fafdfd" d="M 316.5,211.5 C 319.967,213.736 323.634,215.736 327.5,217.5C 339.875,226.549 347.875,238.549 351.5,253.5C 352.323,261.471 352.656,269.471 352.5,277.5C 351.773,282.346 350.44,287.013 348.5,291.5C 344.083,301.256 337.75,309.589 329.5,316.5C 314.271,326.303 297.604,329.803 279.5,327C 274.367,325.457 269.367,323.623 264.5,321.5C 254.187,315.52 245.854,307.52 239.5,297.5C 237.665,292.629 235.665,287.962 233.5,283.5C 232.724,275.525 232.39,267.525 232.5,259.5C 232.812,253.901 234.145,248.567 236.5,243.5C 237.399,240.605 238.733,237.938 240.5,235.5C 243.087,231.733 245.92,228.067 249,224.5C 252.358,221.969 255.524,219.302 258.5,216.5C 262.78,214.36 267.114,212.193 271.5,210C 286.674,206.313 301.674,206.813 316.5,211.5 Z"/></g>
<g><path style="opacity:1" fill="#1371ba" d="M 442.5,247.5 C 433.887,248.442 425.221,248.775 416.5,248.5C 416.831,271.673 416.498,294.673 415.5,317.5C 415.5,294.167 415.5,270.833 415.5,247.5C 423.019,247.825 430.352,247.492 437.5,246.5C 439.716,245.797 441.549,244.464 443,242.5C 443.667,236.167 443.667,229.833 443,223.5C 441.333,222.267 439.833,220.933 438.5,219.5C 412.339,218.502 386.005,218.169 359.5,218.5C 359.905,214.03 362.405,211.697 367,211.5C 367.49,212.793 367.657,214.127 367.5,215.5C 391.151,216.078 413.818,216.078 435.5,215.5C 438.908,217.232 442.075,219.232 445,221.5C 445.667,228.833 445.667,236.167 445,243.5C 444.338,244.984 443.504,246.317 442.5,247.5 Z"/></g>
<g><path style="opacity:1" fill="#106db2" d="M 483.5,246.5 C 497.167,245.833 510.833,245.167 524.5,244.5C 525.5,244.167 526.167,243.5 526.5,242.5C 527.79,241.942 528.623,240.942 529,239.5C 529.499,234.177 529.666,228.844 529.5,223.5C 529.249,221.83 528.582,220.33 527.5,219C 512.994,218.173 498.661,218.339 484.5,219.5C 480.357,219.904 476.357,220.904 472.5,222.5C 473.726,220.124 475.726,218.624 478.5,218C 477.692,217.692 477.025,217.192 476.5,216.5C 489.669,215.763 502.835,216.096 516,217.5C 521.12,216.198 526.12,216.532 531,218.5C 531.2,225.883 531.7,233.216 532.5,240.5C 531.01,241.826 529.676,243.326 528.5,245C 513.597,246.467 498.597,246.967 483.5,246.5 Z"/></g>
<g><path style="opacity:1" fill="#4b90bf" d="M 484.5,219.5 C 498.661,218.339 512.994,218.173 527.5,219C 528.582,220.33 529.249,221.83 529.5,223.5C 528.257,221.836 526.59,220.669 524.5,220C 511.171,219.5 497.837,219.333 484.5,219.5 Z"/></g>
<g><path style="opacity:1" fill="#d7f4fc" d="M 484.5,219.5 C 497.837,219.333 511.171,219.5 524.5,220C 526.59,220.669 528.257,221.836 529.5,223.5C 529.666,228.844 529.499,234.177 529,239.5C 528.623,240.942 527.79,241.942 526.5,242.5C 527.474,236.528 527.641,230.528 527,224.5C 525.414,223.624 523.914,222.624 522.5,221.5C 508.846,220.334 495.179,220.167 481.5,221C 475.618,224.381 469.618,227.547 463.5,230.5C 464.167,229.5 464.833,228.5 465.5,227.5C 468.135,226.189 470.469,224.522 472.5,222.5C 476.357,220.904 480.357,219.904 484.5,219.5 Z"/></g>
<g><path style="opacity:1" fill="#f9fdfd" d="M 526.5,242.5 C 526.167,243.5 525.5,244.167 524.5,244.5C 510.496,244.333 496.496,244.5 482.5,245C 480.607,247.917 480.107,251.084 481,254.5C 481.903,255.701 483.069,256.535 484.5,257C 492.5,257.333 500.5,257.667 508.5,258C 520.633,259.651 528.633,266.151 532.5,277.5C 535.028,290.22 532.361,301.554 524.5,311.5C 518.711,316.16 512.044,318.993 504.5,320C 489.17,320.5 473.837,320.667 458.5,320.5C 456.827,319.657 455.66,318.324 455,316.5C 454.333,310.833 454.333,305.167 455,299.5C 455.278,298.584 455.778,297.918 456.5,297.5C 456.833,297.5 457.167,297.5 457.5,297.5C 473.17,297.667 488.837,297.5 504.5,297C 505.056,296.617 505.389,296.117 505.5,295.5C 510.012,290.252 509.345,285.752 503.5,282C 494.833,281.667 486.167,281.333 477.5,281C 473.058,279.943 469.058,278.11 465.5,275.5C 456.176,265.486 453.343,253.82 457,240.5C 458.942,236.931 461.108,233.598 463.5,230.5C 469.618,227.547 475.618,224.381 481.5,221C 495.179,220.167 508.846,220.334 522.5,221.5C 523.914,222.624 525.414,223.624 527,224.5C 527.641,230.528 527.474,236.528 526.5,242.5 Z"/></g>
<g><path style="opacity:1" fill="#fbfdfd" d="M 207.5,228.5 C 211.972,231.096 215.306,234.763 217.5,239.5C 220.565,245.433 221.899,251.766 221.5,258.5C 221.666,268.172 221.5,277.839 221,287.5C 220.41,292.006 219.243,296.339 217.5,300.5C 215.549,303.786 213.215,306.786 210.5,309.5C 208.856,309.714 207.356,309.38 206,308.5C 204.417,310.393 202.917,312.393 201.5,314.5C 197.176,315.993 192.843,317.493 188.5,319C 171.837,319.5 155.17,319.667 138.5,319.5C 138.659,316.813 137.825,314.48 136,312.5C 135.333,283.5 135.333,254.5 136,225.5C 137.171,224.107 138.671,223.273 140.5,223C 156.167,222.333 171.833,222.333 187.5,223C 194.532,223.637 201.199,225.471 207.5,228.5 Z"/></g>
<g><path style="opacity:1" fill="#f5fafc" d="M 438.5,219.5 C 439.833,220.933 441.333,222.267 443,223.5C 443.667,229.833 443.667,236.167 443,242.5C 441.549,244.464 439.716,245.797 437.5,246.5C 429.833,246.5 422.167,246.5 414.5,246.5C 414.667,270.169 414.5,293.836 414,317.5C 410.501,321.033 406.168,322.366 401,321.5C 397.833,321.333 394.667,321.167 391.5,321C 390,320.167 388.833,319 388,317.5C 387.5,293.836 387.333,270.169 387.5,246.5C 378.749,246.803 370.082,246.47 361.5,245.5C 360.878,244.373 360.045,243.373 359,242.5C 358.333,236.167 358.333,229.833 359,223.5C 360.167,222.333 361.333,221.167 362.5,220C 387.831,219.5 413.164,219.333 438.5,219.5 Z"/></g>
<g><path style="opacity:1" fill="#2472b0" d="M 258.5,216.5 C 255.524,219.302 252.358,221.969 249,224.5C 245.92,228.067 243.087,231.733 240.5,235.5C 240.5,233.167 240.5,230.833 240.5,228.5C 241.675,228.719 242.675,228.386 243.5,227.5C 247.111,221.949 252.111,218.282 258.5,216.5 Z"/></g>
<g><path style="opacity:1" fill="#1d6aa7" d="M 553.5,208.5 C 555.683,212.211 557.183,216.211 558,220.5C 558.667,227.833 558.667,235.167 558,242.5C 557.802,244.382 557.302,246.048 556.5,247.5C 556.666,240.492 556.5,233.492 556,226.5C 553.858,221.268 552.691,215.935 552.5,210.5C 552.543,209.584 552.876,208.917 553.5,208.5 Z"/></g>
<g><path style="opacity:1" fill="#1a6dad" d="M 45.5,189.5 C 44.9423,190.79 43.9423,191.623 42.5,192C 40.5,192.333 38.5,192.667 36.5,193C 36.8333,193.333 37.1667,193.667 37.5,194C 36,194.833 34.8333,196 34,197.5C 32.3731,195.688 30.8731,195.521 29.5,197C 29.9054,197.945 30.572,198.612 31.5,199C 29.8333,199.333 28.1667,199.667 26.5,200C 25.6634,201.011 25.33,202.178 25.5,203.5C 21.209,203.93 19.5424,206.097 20.5,210C 17.5363,210.84 17.203,211.84 19.5,213C 18.552,213.483 17.552,213.649 16.5,213.5C 16.6216,216.257 15.4549,218.257 13,219.5C 12.5005,225.491 12.3338,231.491 12.5,237.5C 13.5,237.5 14.5,237.5 15.5,237.5C 14.7784,242.489 14.6117,247.489 15,252.5C 17.2677,253.76 19.4344,255.094 21.5,256.5C 19.8955,258.179 19.2289,260.179 19.5,262.5C 22.1505,264.387 24.8172,266.387 27.5,268.5C 27.2435,270.776 25.9102,271.943 23.5,272C 19.4088,275.749 15.4088,279.583 11.5,283.5C 14.678,276.823 19.678,271.989 26.5,269C 18.6076,264.399 13.7742,257.566 12,248.5C 11.1128,236.784 11.4462,225.117 13,213.5C 18.5922,198.408 29.4255,190.408 45.5,189.5 Z"/></g>
<g><path style="opacity:1" fill="#1871b7" d="M 465.5,227.5 C 464.833,228.5 464.167,229.5 463.5,230.5C 461.108,233.598 458.942,236.931 457,240.5C 453.343,253.82 456.176,265.486 465.5,275.5C 461.044,274.524 458.044,271.858 456.5,267.5C 454.954,266.316 453.287,265.316 451.5,264.5C 452.718,264.891 453.552,264.224 454,262.5C 454.933,257.549 454.266,252.882 452,248.5C 451.667,252.833 451.333,257.167 451,261.5C 448.144,256.696 447.977,251.863 450.5,247C 450.43,246.235 450.097,245.735 449.5,245.5C 449.215,243.712 449.548,242.045 450.5,240.5C 451.216,241.311 452.05,241.978 453,242.5C 455.48,241.878 455.98,240.544 454.5,238.5C 458.423,235.406 460.923,231.406 462,226.5C 463.011,227.337 464.178,227.67 465.5,227.5 Z"/></g>
<g><path style="opacity:1" fill="#2b73ad" d="M 204.5,225.5 C 191.074,221.066 177.241,219.399 163,220.5C 154.833,220.667 146.667,220.833 138.5,221C 137.333,222.167 136.167,223.333 135,224.5C 134.333,255.167 134.333,285.833 135,316.5C 135.785,318.286 136.951,319.786 138.5,321C 154.833,321.667 171.167,321.667 187.5,321C 194.474,319.119 201.141,316.453 207.5,313C 208.71,311.961 209.71,310.794 210.5,309.5C 213.215,306.786 215.549,303.786 217.5,300.5C 217.657,301.873 217.49,303.207 217,304.5C 214.413,307.413 212.246,310.58 210.5,314C 205.054,317.819 199.054,320.486 192.5,322C 174.167,322.667 155.833,322.667 137.5,322C 134.898,321.065 133.398,319.232 133,316.5C 132.167,284.495 132.333,252.495 133.5,220.5C 135.115,219.846 136.782,219.346 138.5,219C 154.5,218.333 170.5,218.333 186.5,219C 192.802,219.056 198.802,220.222 204.5,222.5C 204.5,223.5 204.5,224.5 204.5,225.5 Z"/></g>
<g><path style="opacity:1" fill="#0370c2" d="M 449.5,245.5 C 450.097,245.735 450.43,246.235 450.5,247C 447.977,251.863 448.144,256.696 451,261.5C 451.333,257.167 451.667,252.833 452,248.5C 454.266,252.882 454.933,257.549 454,262.5C 453.552,264.224 452.718,264.891 451.5,264.5C 453.287,265.316 454.954,266.316 456.5,267.5C 458.044,271.858 461.044,274.524 465.5,275.5C 465.5,276.5 465.5,277.5 465.5,278.5C 466.675,278.281 467.675,278.614 468.5,279.5C 466.613,281.04 464.78,282.707 463,284.5C 462.333,285.167 462.333,285.833 463,286.5C 466.324,284.756 469.824,283.423 473.5,282.5C 481.759,284.051 490.092,284.717 498.5,284.5C 498.66,286.199 498.494,287.866 498,289.5C 497.439,290.022 496.772,290.355 496,290.5C 490.509,289.235 485.009,289.235 479.5,290.5C 484.833,291.167 490.167,291.833 495.5,292.5C 482.085,293.035 468.752,293.868 455.5,295C 453.773,296.389 452.439,298.056 451.5,300C 452.181,306.512 453.014,313.012 454,319.5C 455.11,321.037 456.61,321.703 458.5,321.5C 474.661,322.662 490.995,322.828 507.5,322C 512.173,320.166 516.839,318.333 521.5,316.5C 525.692,317.818 526.359,316.818 523.5,313.5C 523.863,312.817 524.196,312.15 524.5,311.5C 532.361,301.554 535.028,290.22 532.5,277.5C 532.632,274.43 532.299,271.43 531.5,268.5C 532.79,269.058 533.623,270.058 534,271.5C 537.044,268.625 539.877,265.625 542.5,262.5C 542.833,263.333 543.167,264.167 543.5,265C 541.84,266.842 540.84,269.009 540.5,271.5C 538.833,271.5 537.167,271.5 535.5,271.5C 534.811,275.917 535.144,280.417 536.5,285C 535.753,289.461 535.253,293.961 535,298.5C 533.842,298.998 533.009,299.831 532.5,301C 534.05,304.467 533.383,307.467 530.5,310C 530.704,312.621 530.704,315.455 530.5,318.5C 528.654,318.222 527.32,318.889 526.5,320.5C 528.045,321.452 529.712,321.785 531.5,321.5C 531.548,324.292 530.215,326.125 527.5,327C 532.226,329.255 536.393,328.422 540,324.5C 541.214,326.467 541.714,328.467 541.5,330.5C 540.442,331.6 539.608,332.934 539,334.5C 536.044,336.066 533.544,338.066 531.5,340.5C 526.858,341.458 522.525,343.291 518.5,346C 516.473,346.498 514.473,346.331 512.5,345.5C 509.744,347.271 506.744,348.271 503.5,348.5C 487.497,348.667 471.497,348.5 455.5,348C 454.833,347.667 454.167,347.333 453.5,347C 455.256,346.798 456.922,346.298 458.5,345.5C 459.711,344.28 459.711,343.113 458.5,342C 459.167,341.667 459.833,341.333 460.5,341C 459.588,338.512 460.588,336.845 463.5,336C 460.697,335.245 458.03,335.578 455.5,337C 456.051,338.398 456.384,339.732 456.5,341C 455.584,341.374 454.75,341.874 454,342.5C 450.871,341.87 447.704,341.204 444.5,340.5C 445.538,337.212 444.872,336.879 442.5,339.5C 440.465,338.403 439.132,336.737 438.5,334.5C 437.554,334.013 436.554,333.68 435.5,333.5C 432.307,334.554 429.307,336.054 426.5,338C 426.957,338.414 427.291,338.914 427.5,339.5C 425.914,341.173 425.247,343.173 425.5,345.5C 423.43,345.551 421.597,344.885 420,343.5C 419.5,343.833 419,344.167 418.5,344.5C 421.028,345.816 421.028,346.983 418.5,348C 406.505,348.5 394.505,348.667 382.5,348.5C 382.421,347.07 382.754,345.736 383.5,344.5C 380.95,344.941 378.283,344.941 375.5,344.5C 374.316,342.954 373.316,341.287 372.5,339.5C 367.626,338.281 364.959,335.114 364.5,330C 364.164,328.97 363.497,328.47 362.5,328.5C 362.103,327.475 361.437,327.308 360.5,328C 355.86,333.486 350.527,337.986 344.5,341.5C 341.026,337.6 336.693,336.6 331.5,338.5C 327.833,337.333 324.167,336.167 320.5,335C 324.514,333.93 328.514,333.43 332.5,333.5C 334.74,333.935 336.906,334.602 339,335.5C 342.68,335.487 346.347,335.487 350,335.5C 350.44,333.924 351.273,332.59 352.5,331.5C 357.391,330.65 359.391,327.983 358.5,323.5C 354.961,327.709 353.627,327.376 354.5,322.5C 353.902,321.205 353.402,319.872 353,318.5C 352.346,319.696 351.846,319.696 351.5,318.5C 353.285,309.461 351.951,309.461 347.5,318.5C 346.833,319.833 346.167,319.833 345.5,318.5C 348.84,313.974 350.673,308.974 351,303.5C 348.28,306.555 345.947,309.888 344,313.5C 343.51,314.793 343.343,316.127 343.5,317.5C 339.558,317.592 336.058,318.926 333,321.5C 330.195,320.793 327.361,321.127 324.5,322.5C 326.86,321.135 328.527,319.135 329.5,316.5C 337.75,309.589 344.083,301.256 348.5,291.5C 350.258,289.859 351.758,287.859 353,285.5C 356.486,273.586 356.32,261.753 352.5,250C 352.667,249.167 352.833,248.333 353,247.5C 353.689,252.362 354.856,252.362 356.5,247.5C 358.665,247.116 360.332,247.783 361.5,249.5C 359.914,251.173 359.247,253.173 359.5,255.5C 360.675,255.719 361.675,255.386 362.5,254.5C 363.348,252.591 363.682,250.591 363.5,248.5C 370.5,248.5 377.5,248.5 384.5,248.5C 386.326,271.478 387.159,294.812 387,318.5C 387.956,319.579 388.789,320.745 389.5,322C 396.833,322.667 404.167,322.667 411.5,322C 413.184,320.791 414.517,319.291 415.5,317.5C 416.498,294.673 416.831,271.673 416.5,248.5C 425.221,248.775 433.887,248.442 442.5,247.5C 444.384,247.712 445.717,248.712 446.5,250.5C 447.952,249.06 448.952,247.394 449.5,245.5 Z"/></g>
<g><path style="opacity:1" fill="#186eb1" d="M 327.5,217.5 C 331.123,218.597 334.123,220.764 336.5,224C 338.568,224.687 340.568,224.52 342.5,223.5C 342.833,223.833 343.167,224.167 343.5,224.5C 341.062,226.656 340.895,228.989 343,231.5C 344.841,233.374 346.508,235.374 348,237.5C 349.605,236.899 350.938,235.899 352,234.5C 352.25,237.754 353.25,240.754 355,243.5C 356.263,236.272 356.93,228.939 357,221.5C 357.698,220.309 358.531,219.309 359.5,218.5C 386.005,218.169 412.339,218.502 438.5,219.5C 413.164,219.333 387.831,219.5 362.5,220C 361.333,221.167 360.167,222.333 359,223.5C 358.333,229.833 358.333,236.167 359,242.5C 360.045,243.373 360.878,244.373 361.5,245.5C 368.946,247.153 376.612,248.153 384.5,248.5C 377.5,248.5 370.5,248.5 363.5,248.5C 363.682,250.591 363.348,252.591 362.5,254.5C 361.675,255.386 360.675,255.719 359.5,255.5C 359.247,253.173 359.914,251.173 361.5,249.5C 360.332,247.783 358.665,247.116 356.5,247.5C 354.856,252.362 353.689,252.362 353,247.5C 352.833,248.333 352.667,249.167 352.5,250C 356.32,261.753 356.486,273.586 353,285.5C 351.758,287.859 350.258,289.859 348.5,291.5C 350.44,287.013 351.773,282.346 352.5,277.5C 353.165,274.351 353.498,271.018 353.5,267.5C 353.7,262.563 353.033,257.896 351.5,253.5C 347.875,238.549 339.875,226.549 327.5,217.5 Z"/></g>
<g><path style="opacity:1" fill="#3277ac" d="M 524.5,244.5 C 510.833,245.167 497.167,245.833 483.5,246.5C 482.612,249.054 482.279,251.721 482.5,254.5C 492.147,255.194 501.813,255.694 511.5,256C 515.943,258.534 520.61,260.367 525.5,261.5C 526.139,263.76 527.306,265.76 529,267.5C 529.671,268.252 530.504,268.586 531.5,268.5C 532.299,271.43 532.632,274.43 532.5,277.5C 528.633,266.151 520.633,259.651 508.5,258C 500.5,257.667 492.5,257.333 484.5,257C 483.069,256.535 481.903,255.701 481,254.5C 480.107,251.084 480.607,247.917 482.5,245C 496.496,244.5 510.496,244.333 524.5,244.5 Z"/></g>
<g><path style="opacity:1" fill="#0370c2" d="M 261.5,187.5 C 261.746,190.47 263.412,191.803 266.5,191.5C 266.5,194.167 266.5,196.833 266.5,199.5C 264.833,199.5 263.167,199.5 261.5,199.5C 261.5,202.167 261.5,204.833 261.5,207.5C 260.448,207.351 259.448,207.517 258.5,208C 260.65,209.411 262.984,210.245 265.5,210.5C 263.574,212.293 261.241,213.293 258.5,213.5C 258.5,214.5 258.5,215.5 258.5,216.5C 252.111,218.282 247.111,221.949 243.5,227.5C 242.675,228.386 241.675,228.719 240.5,228.5C 240.5,230.833 240.5,233.167 240.5,235.5C 238.733,237.938 237.399,240.605 236.5,243.5C 234.665,244.122 233.498,245.456 233,247.5C 232.605,251.019 231.605,254.352 230,257.5C 229.503,255.19 229.337,252.857 229.5,250.5C 228.167,250.5 226.833,250.5 225.5,250.5C 225.663,252.857 225.497,255.19 225,257.5C 223.654,252.151 222.321,246.817 221,241.5C 220.184,240.177 219.017,239.511 217.5,239.5C 215.306,234.763 211.972,231.096 207.5,228.5C 206.694,227.272 205.694,226.272 204.5,225.5C 204.5,224.5 204.5,223.5 204.5,222.5C 198.802,220.222 192.802,219.056 186.5,219C 170.5,218.333 154.5,218.333 138.5,219C 136.782,219.346 135.115,219.846 133.5,220.5C 132.333,252.495 132.167,284.495 133,316.5C 133.398,319.232 134.898,321.065 137.5,322C 155.833,322.667 174.167,322.667 192.5,322C 199.054,320.486 205.054,317.819 210.5,314C 212.246,310.58 214.413,307.413 217,304.5C 217.49,303.207 217.657,301.873 217.5,300.5C 221.087,296.98 222.753,292.647 222.5,287.5C 224.304,280.568 225.137,273.235 225,265.5C 225.374,266.416 225.874,267.25 226.5,268C 225.383,271.073 225.216,274.24 226,277.5C 227.017,275.624 227.851,273.624 228.5,271.5C 228.833,272.833 229.167,274.167 229.5,275.5C 228.663,280.514 228.163,285.514 228,290.5C 228.414,290.957 228.914,291.291 229.5,291.5C 231.659,284.971 233.159,285.305 234,292.5C 235.75,294.424 237.583,296.091 239.5,297.5C 245.854,307.52 254.187,315.52 264.5,321.5C 264.414,322.496 264.748,323.329 265.5,324C 270.363,325.056 274.697,327.056 278.5,330C 276.369,330.543 274.369,331.376 272.5,332.5C 275.478,333.649 278.478,333.649 281.5,332.5C 283.459,332.875 285.293,333.541 287,334.5C 287.483,333.552 287.649,332.552 287.5,331.5C 291.697,331.571 295.863,331.237 300,330.5C 308.363,328.206 316.53,325.539 324.5,322.5C 327.361,321.127 330.195,320.793 333,321.5C 336.058,318.926 339.558,317.592 343.5,317.5C 343.343,316.127 343.51,314.793 344,313.5C 345.947,309.888 348.28,306.555 351,303.5C 350.673,308.974 348.84,313.974 345.5,318.5C 346.167,319.833 346.833,319.833 347.5,318.5C 351.951,309.461 353.285,309.461 351.5,318.5C 351.846,319.696 352.346,319.696 353,318.5C 353.402,319.872 353.902,321.205 354.5,322.5C 353.627,327.376 354.961,327.709 358.5,323.5C 359.391,327.983 357.391,330.65 352.5,331.5C 351.273,332.59 350.44,333.924 350,335.5C 346.347,335.487 342.68,335.487 339,335.5C 336.906,334.602 334.74,333.935 332.5,333.5C 328.514,333.43 324.514,333.93 320.5,335C 324.167,336.167 327.833,337.333 331.5,338.5C 336.693,336.6 341.026,337.6 344.5,341.5C 337.99,346.755 330.656,350.422 322.5,352.5C 313.253,353.145 304.086,354.145 295,355.5C 287.842,354.936 280.675,354.603 273.5,354.5C 272.833,354.5 272.167,354.5 271.5,354.5C 268.452,352.712 265.118,351.212 261.5,350C 260.257,348.846 259.257,347.512 258.5,346C 256.109,345.713 253.776,345.213 251.5,344.5C 250.289,343.726 250.289,342.893 251.5,342C 249.693,340.764 247.693,340.43 245.5,341C 244.663,339.989 244.33,338.822 244.5,337.5C 245.675,337.719 246.675,337.386 247.5,336.5C 246.42,334.004 245.086,331.67 243.5,329.5C 242.416,330.665 241.583,331.998 241,333.5C 240.73,330.638 239.896,327.972 238.5,325.5C 237.646,326.522 236.646,327.355 235.5,328C 239.321,329.144 239.488,330.644 236,332.5C 234.28,331.277 232.447,330.277 230.5,329.5C 228.028,330.992 225.361,331.658 222.5,331.5C 222.5,333.167 222.5,334.833 222.5,336.5C 218.913,336.651 216.246,338.318 214.5,341.5C 208.487,345.498 201.82,347.831 194.5,348.5C 174.831,348.667 155.164,348.5 135.5,348C 133.015,346.513 130.848,344.679 129,342.5C 128.275,343.059 127.442,343.392 126.5,343.5C 124.823,342.813 123.156,342.146 121.5,341.5C 120.833,341.5 120.5,341.167 120.5,340.5C 121.434,339.432 121.768,338.099 121.5,336.5C 118.833,336.5 116.167,336.5 113.5,336.5C 113.719,337.675 113.386,338.675 112.5,339.5C 107.713,341.393 103.047,343.56 98.5,346C 77.895,348.371 57.2283,349.037 36.5,348C 30.3149,346.541 24.6482,344.041 19.5,340.5C 20.6298,338.685 21.2964,336.685 21.5,334.5C 19.549,334.227 18.049,334.893 17,336.5C 16.5034,334.19 16.3367,331.857 16.5,329.5C 15.1667,329.5 13.8333,329.5 12.5,329.5C 12.6355,326.449 12.3022,323.449 11.5,320.5C 13.9086,315.155 14.0753,309.821 12,304.5C 11.6667,305.833 11.3333,307.167 11,308.5C 10.5006,302.843 10.3339,297.176 10.5,291.5C 11.5,291.5 12.5,291.5 13.5,291.5C 13.703,289.362 14.703,287.695 16.5,286.5C 20.0784,285.225 23.7451,284.225 27.5,283.5C 28.7585,281.352 28.7585,279.185 27.5,277C 29.0966,274.589 30.4299,272.089 31.5,269.5C 30.0413,269.567 28.7079,269.234 27.5,268.5C 24.8172,266.387 22.1505,264.387 19.5,262.5C 19.2289,260.179 19.8955,258.179 21.5,256.5C 19.4344,255.094 17.2677,253.76 15,252.5C 14.6117,247.489 14.7784,242.489 15.5,237.5C 14.5,237.5 13.5,237.5 12.5,237.5C 12.3338,231.491 12.5005,225.491 13,219.5C 15.4549,218.257 16.6216,216.257 16.5,213.5C 17.552,213.649 18.552,213.483 19.5,213C 17.203,211.84 17.5363,210.84 20.5,210C 19.5424,206.097 21.209,203.93 25.5,203.5C 25.33,202.178 25.6634,201.011 26.5,200C 28.1667,199.667 29.8333,199.333 31.5,199C 30.572,198.612 29.9054,197.945 29.5,197C 30.8731,195.521 32.3731,195.688 34,197.5C 34.8333,196 36,194.833 37.5,194C 37.1667,193.667 36.8333,193.333 36.5,193C 38.5,192.667 40.5,192.333 42.5,192C 43.9423,191.623 44.9423,190.79 45.5,189.5C 45.8333,189.5 46.1667,189.5 46.5,189.5C 46.9175,190.222 47.5842,190.722 48.5,191C 56.1729,191.478 63.8396,191.311 71.5,190.5C 80.5098,191.112 89.5098,191.779 98.5,192.5C 105.625,193.707 112.125,196.373 118,200.5C 122.127,197.187 126.627,194.521 131.5,192.5C 152.5,192.5 173.5,192.5 194.5,192.5C 200.978,193.703 207.312,195.369 213.5,197.5C 216.557,199.556 219.557,201.889 222.5,204.5C 221.833,205.167 221.167,205.833 220.5,206.5C 222.359,209.019 224.359,209.019 226.5,206.5C 227.451,207.326 228.451,207.492 229.5,207C 230.87,205.559 231.87,203.892 232.5,202C 235.901,202.266 237.567,200.766 237.5,197.5C 241.349,197.498 244.015,195.665 245.5,192C 247.949,191.275 250.283,190.275 252.5,189C 254.035,188.504 255.535,188.67 257,189.5C 258.3,188.293 259.8,187.626 261.5,187.5 Z"/></g>
<g><path style="opacity:1" fill="#2675bb" d="M 41.5,219.5 C 40.3742,226.086 40.2075,232.753 41,239.5C 41.3826,240.056 41.8826,240.389 42.5,240.5C 55.9939,241.331 69.6605,241.831 83.5,242C 86.8587,243.135 88.192,245.468 87.5,249C 87.3333,250.5 87.1667,252 87,253.5C 85.8978,254.949 84.7311,256.282 83.5,257.5C 77.4908,257.334 71.4908,257.501 65.5,258C 65,258.5 64.5,259 64,259.5C 63.3029,265.537 63.4696,271.537 64.5,277.5C 71.0221,277.177 77.3554,277.51 83.5,278.5C 78.5,278.5 73.5,278.5 68.5,278.5C 66.5328,278.739 64.6995,278.406 63,277.5C 61.4179,270.191 61.2512,262.857 62.5,255.5C 63.1667,255.833 63.8333,256.167 64.5,256.5C 69.9498,254.775 75.6165,253.942 81.5,254C 82.2529,252.513 83.0862,252.346 84,253.5C 86.5094,251.282 87.0094,248.616 85.5,245.5C 83.9017,244.515 82.235,244.349 80.5,245C 82.797,246.16 82.4637,247.16 79.5,248C 66.7879,248.186 54.1212,248.686 41.5,249.5C 40.6919,249.192 40.0253,248.692 39.5,248C 41.8333,247.667 44.1667,247.333 46.5,247C 46.9574,246.586 47.2907,246.086 47.5,245.5C 44.0703,244.619 40.737,243.452 37.5,242C 34.5315,239.822 34.8649,238.656 38.5,238.5C 38.7846,233.103 38.4512,227.77 37.5,222.5C 38.0766,220.45 39.4099,219.45 41.5,219.5 Z"/></g>
<g><path style="opacity:1" fill="#dff3fc" d="M 83.5,257.5 C 84.7311,256.282 85.8978,254.949 87,253.5C 87.1667,252 87.3333,250.5 87.5,249C 88.192,245.468 86.8587,243.135 83.5,242C 69.6605,241.831 55.9939,241.331 42.5,240.5C 57.8242,239.223 73.1576,239.223 88.5,240.5C 88.6658,245.179 88.4992,249.845 88,254.5C 87.0816,256.376 85.5816,257.376 83.5,257.5 Z"/></g>
<g><path style="opacity:1" fill="#fbfdfd" d="M 106.5,227.5 C 114.261,236.883 116.594,247.549 113.5,259.5C 112.504,259.414 111.671,259.748 111,260.5C 107.93,267.001 108.263,273.334 112,279.5C 112.667,284.5 112.667,289.5 112,294.5C 109.368,300.105 106.535,305.438 103.5,310.5C 103.167,311.167 102.833,311.833 102.5,312.5C 101.391,312.557 100.391,312.89 99.5,313.5C 94.7121,314.695 90.0454,316.195 85.5,318C 70.8333,318.667 56.1667,318.667 41.5,318C 40.2815,316.562 39.6148,314.895 39.5,313C 40.0543,308.217 40.0543,303.384 39.5,298.5C 54.8629,298 70.1962,297.166 85.5,296C 87.7231,295.348 88.8898,293.848 89,291.5C 89.8007,288.633 89.6341,285.966 88.5,283.5C 87.8561,280.856 86.1894,279.189 83.5,278.5C 77.3554,277.51 71.0221,277.177 64.5,277.5C 63.4696,271.537 63.3029,265.537 64,259.5C 64.5,259 65,258.5 65.5,258C 71.4908,257.501 77.4908,257.334 83.5,257.5C 85.5816,257.376 87.0816,256.376 88,254.5C 88.4992,249.845 88.6658,245.179 88.5,240.5C 73.1576,239.223 57.8242,239.223 42.5,240.5C 41.8826,240.389 41.3826,240.056 41,239.5C 40.2075,232.753 40.3742,226.086 41.5,219.5C 57.4259,218.35 73.4259,218.183 89.5,219C 96.0204,220.26 101.687,223.094 106.5,227.5 Z"/></g>
<g><path style="opacity:1" fill="#3678ae" d="M 106.5,227.5 C 101.687,223.094 96.0204,220.26 89.5,219C 73.4259,218.183 57.4259,218.35 41.5,219.5C 41.8184,217.182 43.1517,215.848 45.5,215.5C 60.4746,216.302 75.4746,216.802 90.5,217C 95.6612,218.498 100.495,220.665 105,223.5C 105.791,224.745 106.291,226.078 106.5,227.5 Z"/></g>
<g><path style="opacity:0.936" fill="#2068a0" d="M 194.5,192.5 C 173.5,192.5 152.5,192.5 131.5,192.5C 141.623,190.991 151.957,190.324 162.5,190.5C 173.374,190.34 184.04,191.007 194.5,192.5 Z"/></g>
<g><path style="opacity:0.698" fill="#286ba2" d="M 46.5,189.5 C 58.5046,189.333 70.5046,189.5 82.5,190C 88.0645,190.249 93.3978,191.082 98.5,192.5C 89.5098,191.779 80.5098,191.112 71.5,190.5C 63.8396,191.311 56.1729,191.478 48.5,191C 47.5842,190.722 46.9175,190.222 46.5,189.5 Z"/></g>
<g><path style="opacity:1" fill="#2c74ae" d="M 106.5,227.5 C 109.315,228.126 111.815,229.46 114,231.5C 117.484,243.628 117.318,255.628 113.5,267.5C 115.585,274.45 116.918,281.616 117.5,289C 115.846,293.147 113.846,296.98 111.5,300.5C 115.735,289.361 115.402,278.361 110.5,267.5C 111.889,265.004 112.889,262.337 113.5,259.5C 116.594,247.549 114.261,236.883 106.5,227.5 Z"/></g>
<g><path style="opacity:1" fill="#6fa2c7" d="M 183.5,246.5 C 176.167,246.5 168.833,246.5 161.5,246.5C 161.5,262.833 161.5,279.167 161.5,295.5C 168.833,295.5 176.167,295.5 183.5,295.5C 176.018,296.492 168.352,296.825 160.5,296.5C 160.5,279.5 160.5,262.5 160.5,245.5C 168.352,245.175 176.018,245.508 183.5,246.5 Z"/></g>
<g><path style="opacity:1" fill="#1571bc" d="M 183.5,246.5 C 188.877,246.712 192.377,249.378 194,254.5C 194.667,264.5 194.667,274.5 194,284.5C 193.758,289.013 191.592,292.013 187.5,293.5C 186.486,294.674 185.153,295.34 183.5,295.5C 176.167,295.5 168.833,295.5 161.5,295.5C 161.5,279.167 161.5,262.833 161.5,246.5C 168.833,246.5 176.167,246.5 183.5,246.5 Z"/></g>
<g><path style="opacity:1" fill="#0270c2" d="M 187.5,293.5 C 185.143,293.663 182.81,293.497 180.5,293C 181.5,292.167 182.5,291.333 183.5,290.5C 181.257,289.526 178.924,289.192 176.5,289.5C 176.5,290.833 176.5,292.167 176.5,293.5C 173.428,293.817 170.428,293.484 167.5,292.5C 168.304,290.271 169.637,289.938 171.5,291.5C 174.947,291.284 175.78,289.95 174,287.5C 173.667,277.167 173.333,266.833 173,256.5C 171.372,255.181 171.539,253.848 173.5,252.5C 172.675,251.614 171.675,251.281 170.5,251.5C 169.892,263.816 169.225,276.149 168.5,288.5C 167.501,275.517 167.168,262.517 167.5,249.5C 173.167,248.925 178.833,248.758 184.5,249C 182.453,250.073 180.453,251.239 178.5,252.5C 181.716,252.594 184.882,252.594 188,252.5C 188.667,254.5 189.333,256.5 190,258.5C 190.5,267.827 190.666,277.161 190.5,286.5C 188.654,286.222 187.32,286.889 186.5,288.5C 187.309,290.071 187.643,291.738 187.5,293.5 Z"/></g>
<g><path style="opacity:1" fill="#0e6eb8" d="M 217.5,239.5 C 219.017,239.511 220.184,240.177 221,241.5C 222.321,246.817 223.654,252.151 225,257.5C 225.497,255.19 225.663,252.857 225.5,250.5C 226.833,250.5 228.167,250.5 229.5,250.5C 229.337,252.857 229.503,255.19 230,257.5C 231.605,254.352 232.605,251.019 233,247.5C 233.498,245.456 234.665,244.122 236.5,243.5C 234.145,248.567 232.812,253.901 232.5,259.5C 231.344,266.989 231.178,274.655 232,282.5C 232.383,283.056 232.883,283.389 233.5,283.5C 235.665,287.962 237.665,292.629 239.5,297.5C 237.583,296.091 235.75,294.424 234,292.5C 233.159,285.305 231.659,284.971 229.5,291.5C 228.914,291.291 228.414,290.957 228,290.5C 228.163,285.514 228.663,280.514 229.5,275.5C 229.167,274.167 228.833,272.833 228.5,271.5C 227.851,273.624 227.017,275.624 226,277.5C 225.216,274.24 225.383,271.073 226.5,268C 225.874,267.25 225.374,266.416 225,265.5C 225.137,273.235 224.304,280.568 222.5,287.5C 222.827,277.652 222.494,267.986 221.5,258.5C 221.899,251.766 220.565,245.433 217.5,239.5 Z"/></g>
<g><path style="opacity:1" fill="#3e82b6" d="M 221.5,258.5 C 222.494,267.986 222.827,277.652 222.5,287.5C 222.753,292.647 221.087,296.98 217.5,300.5C 219.243,296.339 220.41,292.006 221,287.5C 221.5,277.839 221.666,268.172 221.5,258.5 Z"/></g>
<g><path style="opacity:1" fill="#87b7d9" d="M 351.5,253.5 C 353.033,257.896 353.7,262.563 353.5,267.5C 353.498,271.018 353.165,274.351 352.5,277.5C 352.656,269.471 352.323,261.471 351.5,253.5 Z"/></g>
<g><path style="opacity:1" fill="#d5f1fb" d="M 204.5,225.5 C 205.694,226.272 206.694,227.272 207.5,228.5C 201.199,225.471 194.532,223.637 187.5,223C 171.833,222.333 156.167,222.333 140.5,223C 138.671,223.273 137.171,224.107 136,225.5C 135.333,254.5 135.333,283.5 136,312.5C 137.825,314.48 138.659,316.813 138.5,319.5C 155.17,319.667 171.837,319.5 188.5,319C 192.843,317.493 197.176,315.993 201.5,314.5C 202.917,312.393 204.417,310.393 206,308.5C 207.356,309.38 208.856,309.714 210.5,309.5C 209.71,310.794 208.71,311.961 207.5,313C 201.141,316.453 194.474,319.119 187.5,321C 171.167,321.667 154.833,321.667 138.5,321C 136.951,319.786 135.785,318.286 135,316.5C 134.333,285.833 134.333,255.167 135,224.5C 136.167,223.333 137.333,222.167 138.5,221C 146.667,220.833 154.833,220.667 163,220.5C 177.241,219.399 191.074,221.066 204.5,225.5 Z"/></g>
<g><path style="opacity:1" fill="#0c70ba" d="M 27.5,268.5 C 28.7079,269.234 30.0413,269.567 31.5,269.5C 30.4299,272.089 29.0966,274.589 27.5,277C 28.7585,279.185 28.7585,281.352 27.5,283.5C 23.7451,284.225 20.0784,285.225 16.5,286.5C 14.703,287.695 13.703,289.362 13.5,291.5C 12.5,291.5 11.5,291.5 10.5,291.5C 10.3339,297.176 10.5006,302.843 11,308.5C 11.3333,307.167 11.6667,305.833 12,304.5C 14.0753,309.821 13.9086,315.155 11.5,320.5C 12.3022,323.449 12.6355,326.449 12.5,329.5C 13.8333,329.5 15.1667,329.5 16.5,329.5C 16.3367,331.857 16.5034,334.19 17,336.5C 18.049,334.893 19.549,334.227 21.5,334.5C 21.2964,336.685 20.6298,338.685 19.5,340.5C 13.6645,335.166 10.1645,328.5 9,320.5C 8.33333,310.167 8.33333,299.833 9,289.5C 9.24013,287.148 10.0735,285.148 11.5,283.5C 15.4088,279.583 19.4088,275.749 23.5,272C 25.9102,271.943 27.2435,270.776 27.5,268.5 Z"/></g>
<g><path style="opacity:1" fill="#216fa6" d="M 361.5,245.5 C 370.082,246.47 378.749,246.803 387.5,246.5C 387.333,270.169 387.5,293.836 388,317.5C 388.833,319 390,320.167 391.5,321C 394.667,321.167 397.833,321.333 401,321.5C 406.168,322.366 410.501,321.033 414,317.5C 414.5,293.836 414.667,270.169 414.5,246.5C 422.167,246.5 429.833,246.5 437.5,246.5C 430.352,247.492 423.019,247.825 415.5,247.5C 415.5,270.833 415.5,294.167 415.5,317.5C 414.517,319.291 413.184,320.791 411.5,322C 404.167,322.667 396.833,322.667 389.5,322C 388.789,320.745 387.956,319.579 387,318.5C 387.159,294.812 386.326,271.478 384.5,248.5C 376.612,248.153 368.946,247.153 361.5,245.5 Z"/></g>
<g><path style="opacity:1" fill="#1f70b4" d="M 277.5,256.5 C 279.397,253.441 282.064,251.274 285.5,250C 297.335,247.268 306.169,251.101 312,261.5C 314.18,279.985 306.013,288.818 287.5,288C 275.988,282.81 271.488,273.977 274,261.5C 274.697,259.416 275.864,257.749 277.5,256.5 Z"/></g>
<g><path style="opacity:1" fill="#0271c3" d="M 277.5,256.5 C 289.721,247.47 300.554,248.804 310,260.5C 310.512,264.923 309.679,269.09 307.5,273C 308.233,274.766 308.567,276.599 308.5,278.5C 307.5,278.5 306.5,278.5 305.5,278.5C 305.719,277.325 305.386,276.325 304.5,275.5C 304.167,276 303.833,276.5 303.5,277C 304.856,278.567 305.523,280.4 305.5,282.5C 301.781,282.368 298.281,283.035 295,284.5C 293.833,284.167 292.667,283.833 291.5,283.5C 293.512,281.894 295.845,280.727 298.5,280C 299.833,279 299.833,278 298.5,277C 295.482,276.999 292.482,277.499 289.5,278.5C 287.218,277.777 284.884,277.443 282.5,277.5C 282.5,278.5 282.5,279.5 282.5,280.5C 286.161,280.426 286.828,281.426 284.5,283.5C 280.862,281.613 278.028,278.947 276,275.5C 275.152,269.02 275.652,262.687 277.5,256.5 Z"/></g>
<g><path style="opacity:1" fill="#4d88b8" d="M 232.5,259.5 C 232.39,267.525 232.724,275.525 233.5,283.5C 232.883,283.389 232.383,283.056 232,282.5C 231.178,274.655 231.344,266.989 232.5,259.5 Z"/></g>
<g><path style="opacity:1" fill="#1c71b7" d="M 465.5,275.5 C 469.058,278.11 473.058,279.943 477.5,281C 486.167,281.333 494.833,281.667 503.5,282C 509.345,285.752 510.012,290.252 505.5,295.5C 504.833,295.5 504.167,295.5 503.5,295.5C 487.464,294.849 471.798,295.516 456.5,297.5C 455.778,297.918 455.278,298.584 455,299.5C 454.333,305.167 454.333,310.833 455,316.5C 455.66,318.324 456.827,319.657 458.5,320.5C 458.5,320.833 458.5,321.167 458.5,321.5C 456.61,321.703 455.11,321.037 454,319.5C 453.014,313.012 452.181,306.512 451.5,300C 452.439,298.056 453.773,296.389 455.5,295C 468.752,293.868 482.085,293.035 495.5,292.5C 490.167,291.833 484.833,291.167 479.5,290.5C 485.009,289.235 490.509,289.235 496,290.5C 496.772,290.355 497.439,290.022 498,289.5C 498.494,287.866 498.66,286.199 498.5,284.5C 490.092,284.717 481.759,284.051 473.5,282.5C 469.824,283.423 466.324,284.756 463,286.5C 462.333,285.833 462.333,285.167 463,284.5C 464.78,282.707 466.613,281.04 468.5,279.5C 467.675,278.614 466.675,278.281 465.5,278.5C 465.5,277.5 465.5,276.5 465.5,275.5 Z"/></g>
<g><path style="opacity:1" fill="#def7fd" d="M 113.5,259.5 C 112.889,262.337 111.889,265.004 110.5,267.5C 115.402,278.361 115.735,289.361 111.5,300.5C 109.784,304.603 107.117,307.936 103.5,310.5C 106.535,305.438 109.368,300.105 112,294.5C 112.667,289.5 112.667,284.5 112,279.5C 108.263,273.334 107.93,267.001 111,260.5C 111.671,259.748 112.504,259.414 113.5,259.5 Z"/></g>
<g><path style="opacity:1" fill="#4b8ab3" d="M 503.5,295.5 C 488.167,296.167 472.833,296.833 457.5,297.5C 457.167,297.5 456.833,297.5 456.5,297.5C 471.798,295.516 487.464,294.849 503.5,295.5 Z"/></g>
<g><path style="opacity:1" fill="#166cb0" d="M 556.5,247.5 C 555.942,250.344 555.275,253.178 554.5,256C 563.253,273.222 564.753,291.055 559,309.5C 556.978,314.223 554.478,318.557 551.5,322.5C 552.538,318.752 553.871,315.085 555.5,311.5C 554.268,309.317 554.268,307.151 555.5,305C 556.01,303.174 556.844,303.007 558,304.5C 558.333,298.167 558.667,291.833 559,285.5C 559.87,284.892 560.37,284.059 560.5,283C 559.782,279.539 559.282,276.039 559,272.5C 557.833,271.333 556.667,270.167 555.5,269C 556.089,266.14 555.589,263.307 554,260.5C 552.301,259.594 550.467,259.261 548.5,259.5C 548.678,256.784 549.178,254.117 550,251.5C 550.667,248.833 551.333,248.833 552,251.5C 552.333,249.833 552.667,248.167 553,246.5C 554.011,247.337 555.178,247.67 556.5,247.5 Z"/></g>
<g><path style="opacity:1" fill="#c9eefe" d="M 503.5,295.5 C 504.167,295.5 504.833,295.5 505.5,295.5C 505.389,296.117 505.056,296.617 504.5,297C 488.837,297.5 473.17,297.667 457.5,297.5C 472.833,296.833 488.167,296.167 503.5,295.5 Z"/></g>
<g><path style="opacity:1" fill="#d9f3fb" d="M 88.5,283.5 C 89.6341,285.966 89.8007,288.633 89,291.5C 88.8898,293.848 87.7231,295.348 85.5,296C 70.1962,297.166 54.8629,298 39.5,298.5C 40.0543,303.384 40.0543,308.217 39.5,313C 39.6148,314.895 40.2815,316.562 41.5,318C 56.1667,318.667 70.8333,318.667 85.5,318C 90.0454,316.195 94.7121,314.695 99.5,313.5C 93.6709,317.8 87.0042,319.967 79.5,320C 66.8333,320.667 54.1667,320.667 41.5,320C 40.3333,318.833 39.1667,317.667 38,316.5C 37.3333,310.5 37.3333,304.5 38,298.5C 38.5,298 39,297.5 39.5,297C 52.8333,296.667 66.1667,296.333 79.5,296C 86.1877,294.48 89.1877,290.313 88.5,283.5 Z"/></g>
<g><path style="opacity:1" fill="#2873b2" d="M 68.5,278.5 C 73.5,278.5 78.5,278.5 83.5,278.5C 86.1894,279.189 87.8561,280.856 88.5,283.5C 89.1877,290.313 86.1877,294.48 79.5,296C 66.1667,296.333 52.8333,296.667 39.5,297C 39,297.5 38.5,298 38,298.5C 37.3333,304.5 37.3333,310.5 38,316.5C 39.1667,317.667 40.3333,318.833 41.5,320C 54.1667,320.667 66.8333,320.667 79.5,320C 87.0042,319.967 93.6709,317.8 99.5,313.5C 100.391,312.89 101.391,312.557 102.5,312.5C 98.8826,316.316 94.5492,319.15 89.5,321C 90.8333,321.667 90.8333,322.333 89.5,323C 80.8463,323.042 72.1797,322.876 63.5,322.5C 57.5321,322.568 51.6987,323.234 46,324.5C 38.2697,322.075 34.1031,316.742 33.5,308.5C 34.5176,305.273 35.3509,301.94 36,298.5C 37.1667,297.333 38.3333,296.167 39.5,295C 53.1667,294.667 66.8333,294.333 80.5,294C 85.9652,291.459 87.6319,287.293 85.5,281.5C 79.826,279.986 74.1593,278.986 68.5,278.5 Z"/></g>
<g><path style="opacity:1" fill="#3d7db3" d="M 524.5,311.5 C 524.196,312.15 523.863,312.817 523.5,313.5C 526.359,316.818 525.692,317.818 521.5,316.5C 516.839,318.333 512.173,320.166 507.5,322C 490.995,322.828 474.661,322.662 458.5,321.5C 458.5,321.167 458.5,320.833 458.5,320.5C 473.837,320.667 489.17,320.5 504.5,320C 512.044,318.993 518.711,316.16 524.5,311.5 Z"/></g>
<g><path style="opacity:1" fill="#136ab0" d="M 271.5,354.5 C 255.352,351.008 241.852,343.008 231,330.5C 226.389,335.552 220.889,339.218 214.5,341.5C 216.246,338.318 218.913,336.651 222.5,336.5C 222.5,334.833 222.5,333.167 222.5,331.5C 225.361,331.658 228.028,330.992 230.5,329.5C 232.447,330.277 234.28,331.277 236,332.5C 239.488,330.644 239.321,329.144 235.5,328C 236.646,327.355 237.646,326.522 238.5,325.5C 239.896,327.972 240.73,330.638 241,333.5C 241.583,331.998 242.416,330.665 243.5,329.5C 245.086,331.67 246.42,334.004 247.5,336.5C 246.675,337.386 245.675,337.719 244.5,337.5C 244.33,338.822 244.663,339.989 245.5,341C 247.693,340.43 249.693,340.764 251.5,342C 250.289,342.893 250.289,343.726 251.5,344.5C 253.776,345.213 256.109,345.713 258.5,346C 259.257,347.512 260.257,348.846 261.5,350C 265.118,351.212 268.452,352.712 271.5,354.5 Z"/></g>
<g><path style="opacity:1" fill="#2674b7" d="M 329.5,316.5 C 328.527,319.135 326.86,321.135 324.5,322.5C 316.53,325.539 308.363,328.206 300,330.5C 295.863,331.237 291.697,331.571 287.5,331.5C 287.649,332.552 287.483,333.552 287,334.5C 285.293,333.541 283.459,332.875 281.5,332.5C 278.478,333.649 275.478,333.649 272.5,332.5C 274.369,331.376 276.369,330.543 278.5,330C 274.697,327.056 270.363,325.056 265.5,324C 264.748,323.329 264.414,322.496 264.5,321.5C 269.367,323.623 274.367,325.457 279.5,327C 297.604,329.803 314.271,326.303 329.5,316.5 Z"/></g>
<g><path style="opacity:1" fill="#2f6597" d="M 551.5,323.5 C 546.409,331.042 539.742,336.709 531.5,340.5C 533.544,338.066 536.044,336.066 539,334.5C 539.608,332.934 540.442,331.6 541.5,330.5C 545.012,329.995 547.345,327.995 548.5,324.5C 549.325,323.614 550.325,323.281 551.5,323.5 Z"/></g>
<g><path style="opacity:1" fill="#116ab3" d="M 362.5,328.5 C 363.497,328.47 364.164,328.97 364.5,330C 364.959,335.114 367.626,338.281 372.5,339.5C 373.316,341.287 374.316,342.954 375.5,344.5C 378.283,344.941 380.95,344.941 383.5,344.5C 382.754,345.736 382.421,347.07 382.5,348.5C 394.505,348.667 406.505,348.5 418.5,348C 421.028,346.983 421.028,345.816 418.5,344.5C 419,344.167 419.5,343.833 420,343.5C 421.597,344.885 423.43,345.551 425.5,345.5C 425.247,343.173 425.914,341.173 427.5,339.5C 427.291,338.914 426.957,338.414 426.5,338C 429.307,336.054 432.307,334.554 435.5,333.5C 436.554,333.68 437.554,334.013 438.5,334.5C 439.132,336.737 440.465,338.403 442.5,339.5C 444.872,336.879 445.538,337.212 444.5,340.5C 447.704,341.204 450.871,341.87 454,342.5C 454.75,341.874 455.584,341.374 456.5,341C 456.384,339.732 456.051,338.398 455.5,337C 458.03,335.578 460.697,335.245 463.5,336C 460.588,336.845 459.588,338.512 460.5,341C 459.833,341.333 459.167,341.667 458.5,342C 459.711,343.113 459.711,344.28 458.5,345.5C 456.922,346.298 455.256,346.798 453.5,347C 454.167,347.333 454.833,347.667 455.5,348C 471.497,348.5 487.497,348.667 503.5,348.5C 488.676,349.496 473.676,349.829 458.5,349.5C 449.032,347.545 441.532,342.545 436,334.5C 430.736,345.44 422.069,351.107 410,351.5C 401.578,350.682 393.078,350.182 384.5,350C 372.686,347.352 365.353,340.186 362.5,328.5 Z"/></g>
<g><path style="opacity:1" fill="#1965a4" d="M 120.5,340.5 C 119.855,339.188 118.855,338.188 117.5,337.5C 100.846,348.6 82.5124,352.933 62.5,350.5C 53.8333,350.333 45.1667,350.167 36.5,350C 31.6692,348.39 27.0025,346.39 22.5,344C 21.2899,342.961 20.2899,341.794 19.5,340.5C 24.6482,344.041 30.3149,346.541 36.5,348C 57.2283,349.037 77.895,348.371 98.5,346C 103.047,343.56 107.713,341.393 112.5,339.5C 113.386,338.675 113.719,337.675 113.5,336.5C 116.167,336.5 118.833,336.5 121.5,336.5C 121.768,338.099 121.434,339.432 120.5,340.5 Z"/></g>
<g><path style="opacity:1" fill="#226bac" d="M 121.5,341.5 C 123.156,342.146 124.823,342.813 126.5,343.5C 127.442,343.392 128.275,343.059 129,342.5C 130.848,344.679 133.015,346.513 135.5,348C 155.164,348.5 174.831,348.667 194.5,348.5C 192.708,349.309 190.708,349.809 188.5,350C 173.494,350.635 158.494,350.968 143.5,351C 134.676,351.012 127.343,347.846 121.5,341.5 Z"/></g>
<g><path style="opacity:0.838" fill="#246ea4" d="M 531.5,340.5 C 524.125,345.841 515.792,349.008 506.5,350C 490.328,350.828 474.328,350.661 458.5,349.5C 473.676,349.829 488.676,349.496 503.5,348.5C 506.744,348.271 509.744,347.271 512.5,345.5C 514.473,346.331 516.473,346.498 518.5,346C 522.525,343.291 526.858,341.458 531.5,340.5 Z"/></g>
<g><path style="opacity:1" fill="#206aa8" d="M 322.5,352.5 C 306.372,358.3 290.039,358.966 273.5,354.5C 280.675,354.603 287.842,354.936 295,355.5C 304.086,354.145 313.253,353.145 322.5,352.5 Z"/></g>
<g><path style="opacity:1" fill="#ad1915" d="M 208.5,389.5 C 210.299,382.525 209.633,375.858 206.5,369.5C 204.869,367.703 202.869,366.536 200.5,366C 196.848,365.501 193.182,365.335 189.5,365.5C 203.116,360.487 210.45,365.32 211.5,380C 211.077,383.478 210.077,386.644 208.5,389.5 Z"/></g>
<g><path style="opacity:1" fill="#b31914" d="M 458.5,371.5 C 459.99,369.72 461.99,369.054 464.5,369.5C 464.5,368.5 464.5,367.5 464.5,366.5C 458.794,366.171 453.128,366.505 447.5,367.5C 448.63,368.622 449.297,369.956 449.5,371.5C 447.143,371.663 444.81,371.497 442.5,371C 440.982,368.075 441.649,365.742 444.5,364C 451.5,363.333 458.5,363.333 465.5,364C 468.167,366.333 468.167,368.667 465.5,371C 463.19,371.497 460.857,371.663 458.5,371.5 Z"/></g>
<g><path style="opacity:0.918" fill="#a81f1f" d="M 284.5,371.5 C 286.292,370.691 288.292,370.191 290.5,370C 291.38,368.644 291.714,367.144 291.5,365.5C 284.825,365.334 278.158,365.5 271.5,366C 270.483,367.049 270.316,368.216 271,369.5C 272.622,370.099 274.122,370.766 275.5,371.5C 269.5,372.833 267.167,370.5 268.5,364.5C 276.131,363.436 283.798,363.269 291.5,364C 293.792,366.245 294.125,368.745 292.5,371.5C 289.833,371.5 287.167,371.5 284.5,371.5 Z"/></g>
<g><path style="opacity:1" fill="#a4211d" d="M 350.5,370.5 C 350.714,368.856 350.38,367.356 349.5,366C 343.128,363.314 337.628,364.48 333,369.5C 332.503,372.146 332.336,374.813 332.5,377.5C 329.65,371.561 331.317,367.061 337.5,364C 341.5,363.333 345.5,363.333 349.5,364C 352.993,365.785 353.326,367.952 350.5,370.5 Z"/></g>
<g><path style="opacity:1" fill="#c7090a" d="M 243.5,364.5 C 247.902,364.228 252.235,364.561 256.5,365.5C 257.731,366.651 257.731,367.817 256.5,369C 253.167,369.333 249.833,369.667 246.5,370C 243.601,373.227 244.268,375.56 248.5,377C 250.813,377.662 253.146,378.162 255.5,378.5C 255.833,378.5 256.167,378.5 256.5,378.5C 261.229,388.78 257.896,393.78 246.5,393.5C 244.142,393.247 241.808,392.914 239.5,392.5C 239.5,391.167 239.5,389.833 239.5,388.5C 243.042,388.813 246.375,388.479 249.5,387.5C 249.833,387.5 250.167,387.5 250.5,387.5C 251.782,386.292 251.782,384.958 250.5,383.5C 246.765,381.927 243.431,379.761 240.5,377C 239.491,373.523 239.491,370.023 240.5,366.5C 240.973,365.094 241.973,364.427 243.5,364.5 Z"/></g>
<g><path style="opacity:1" fill="#cc0908" d="M 284.5,371.5 C 282.539,378.087 281.872,385.087 282.5,392.5C 280.5,392.5 278.5,392.5 276.5,392.5C 276.825,385.313 276.491,378.313 275.5,371.5C 274.122,370.766 272.622,370.099 271,369.5C 270.316,368.216 270.483,367.049 271.5,366C 278.158,365.5 284.825,365.334 291.5,365.5C 291.714,367.144 291.38,368.644 290.5,370C 288.292,370.191 286.292,370.691 284.5,371.5 Z"/></g>
<g><path style="opacity:1" fill="#ac1a16" d="M 240.5,366.5 C 239.491,370.023 239.491,373.523 240.5,377C 243.431,379.761 246.765,381.927 250.5,383.5C 251.782,384.958 251.782,386.292 250.5,387.5C 250.5,386.5 250.5,385.5 250.5,384.5C 243.48,383.846 239.146,380.179 237.5,373.5C 237.714,370.748 238.714,368.414 240.5,366.5 Z"/></g>
<g><path style="opacity:1" fill="#a61b1b" d="M 243.5,364.5 C 245.473,363.837 247.639,363.504 250,363.5C 253.243,363.307 256.243,363.973 259,365.5C 259.825,367.701 259.325,369.534 257.5,371C 253.848,371.499 250.182,371.665 246.5,371.5C 246.33,372.822 246.663,373.989 247.5,375C 250.476,375.705 253.142,376.871 255.5,378.5C 253.146,378.162 250.813,377.662 248.5,377C 244.268,375.56 243.601,373.227 246.5,370C 249.833,369.667 253.167,369.333 256.5,369C 257.731,367.817 257.731,366.651 256.5,365.5C 252.235,364.561 247.902,364.228 243.5,364.5 Z"/></g>
<g><path style="opacity:0.278" fill="#ab2828" d="M 120.5,364.5 C 118.887,365.838 118.387,367.505 119,369.5C 123.08,370.3 127.247,370.8 131.5,371C 133.043,373.045 132.71,374.545 130.5,375.5C 130.5,374.167 130.5,372.833 130.5,371.5C 126.486,371.666 122.486,371.499 118.5,371C 117.424,369.274 117.257,367.441 118,365.5C 118.671,364.748 119.504,364.414 120.5,364.5 Z"/></g>
<g><path style="opacity:1" fill="#c9090a" d="M 350.5,370.5 C 346.5,370.5 342.5,370.5 338.5,370.5C 338.125,375.495 340.458,377.495 345.5,376.5C 347.411,379.404 349.411,382.237 351.5,385C 351.201,388.23 349.868,390.897 347.5,393C 342.463,393.663 337.463,393.496 332.5,392.5C 332.5,391.167 332.5,389.833 332.5,388.5C 336.182,388.665 339.848,388.499 343.5,388C 345.107,386.951 345.773,385.451 345.5,383.5C 344.5,383.5 343.5,383.5 342.5,383.5C 338.311,382.786 334.978,380.786 332.5,377.5C 332.336,374.813 332.503,372.146 333,369.5C 337.628,364.48 343.128,363.314 349.5,366C 350.38,367.356 350.714,368.856 350.5,370.5 Z"/></g>
<g><path style="opacity:1" fill="#b81313" d="M 416.5,391.5 C 421.722,393.136 427.056,393.636 432.5,393C 434.71,391.491 436.543,389.658 438,387.5C 438.499,382.845 438.666,378.179 438.5,373.5C 437.167,373.5 435.833,373.5 434.5,373.5C 434.854,377.637 434.354,381.637 433,385.5C 430.441,388.349 427.274,389.183 423.5,388C 422.748,387.329 422.414,386.496 422.5,385.5C 421.206,383.952 420.539,381.952 420.5,379.5C 419.543,373.05 422.21,369.383 428.5,368.5C 426.378,366.885 424.045,366.385 421.5,367C 419.667,369.5 417.5,371.667 415,373.5C 414.501,378.489 414.334,383.489 414.5,388.5C 411.774,382.225 411.941,375.892 415,369.5C 422.716,361.928 430.716,361.594 439,368.5C 442.333,375.833 442.333,383.167 439,390.5C 434.078,395.202 428.245,396.702 421.5,395C 419.416,394.303 417.749,393.136 416.5,391.5 Z M 422.5,385.5 C 420.862,381.02 421.196,376.686 423.5,372.5C 426.914,370.954 429.747,371.62 432,374.5C 432.667,377.833 432.667,381.167 432,384.5C 429.209,388.154 426.043,388.487 422.5,385.5 Z"/></g>
<g><path style="opacity:1" fill="#c50f0a" d="M 458.5,371.5 C 457.508,378.648 457.175,385.981 457.5,393.5C 455.5,393.5 453.5,393.5 451.5,393.5C 451.768,391.901 451.434,390.568 450.5,389.5C 450.16,383.522 449.827,377.522 449.5,371.5C 449.297,369.956 448.63,368.622 447.5,367.5C 453.128,366.505 458.794,366.171 464.5,366.5C 464.5,367.5 464.5,368.5 464.5,369.5C 461.99,369.054 459.99,369.72 458.5,371.5 Z"/></g>
<g><path style="opacity:0.939" fill="#a5171a" d="M 350.5,370.5 C 347.375,371.479 344.042,371.813 340.5,371.5C 340.281,372.675 340.614,373.675 341.5,374.5C 343.026,374.994 344.359,375.661 345.5,376.5C 340.458,377.495 338.125,375.495 338.5,370.5C 342.5,370.5 346.5,370.5 350.5,370.5 Z"/></g>
<g><path style="opacity:0.11" fill="#8b4f4f" d="M 121.5,373.5 C 123.628,372.371 125.961,372.204 128.5,373C 126.19,373.497 123.857,373.663 121.5,373.5 Z"/></g>
<g><path style="opacity:1" fill="#cd0605" d="M 189.5,365.5 C 193.182,365.335 196.848,365.501 200.5,366C 202.869,366.536 204.869,367.703 206.5,369.5C 209.633,375.858 210.299,382.525 208.5,389.5C 206.287,389.848 204.287,390.681 202.5,392C 199.118,392.824 195.784,392.657 192.5,391.5C 196.241,390.435 199.408,388.435 202,385.5C 202.667,381.5 202.667,377.5 202,373.5C 201.722,372.584 201.222,371.918 200.5,371.5C 200.5,371.167 200.5,370.833 200.5,370.5C 197.038,369.518 193.371,369.185 189.5,369.5C 189.666,376.175 189.5,382.842 189,389.5C 188.29,388.027 187.124,387.36 185.5,387.5C 184.578,382.528 184.412,377.528 185,372.5C 185.904,369.767 187.404,367.433 189.5,365.5 Z M 200.5,371.5 C 201.463,375.796 201.629,380.129 201,384.5C 198.112,387.97 194.946,388.304 191.5,385.5C 191.353,380.786 191.686,376.119 192.5,371.5C 195.167,371.5 197.833,371.5 200.5,371.5 Z"/></g>
<g><path style="opacity:0.573" fill="#a1221c" d="M 371.5,383.5 C 372.254,386.023 372.92,388.689 373.5,391.5C 375.045,392.452 376.712,392.785 378.5,392.5C 379.507,383.856 379.673,375.189 379,366.5C 377.644,365.62 376.144,365.286 374.5,365.5C 374.712,369.345 373.712,372.679 371.5,375.5C 369.167,374.167 366.833,374.167 364.5,375.5C 363.778,375.082 363.278,374.416 363,373.5C 362.503,370.854 362.336,368.187 362.5,365.5C 360.5,365.5 358.5,365.5 356.5,365.5C 358.662,363.025 360.996,363.025 363.5,365.5C 364.42,367.786 364.42,370.119 363.5,372.5C 366.5,372.5 369.5,372.5 372.5,372.5C 372.187,369.753 372.52,367.086 373.5,364.5C 375.861,363.224 378.028,363.558 380,365.5C 380.212,368.758 380.712,371.924 381.5,375C 380.688,381.085 380.188,387.252 380,393.5C 377.925,395.648 375.592,395.982 373,394.5C 371.763,390.94 371.263,387.273 371.5,383.5 Z"/></g>
<g><path style="opacity:0.151" fill="#a31e1e" d="M 200.5,370.5 C 200.5,370.833 200.5,371.167 200.5,371.5C 197.833,371.5 195.167,371.5 192.5,371.5C 191.686,376.119 191.353,380.786 191.5,385.5C 190.352,381.019 190.185,376.352 191,371.5C 194.057,370.549 197.223,370.216 200.5,370.5 Z"/></g>
<g><path style="opacity:1" fill="#a91c19" d="M 120.5,364.5 C 124.646,363.353 128.98,363.186 133.5,364C 138.906,365.98 140.739,369.814 139,375.5C 138.167,376.333 137.333,377.167 136.5,378C 139.538,381.872 140.205,386.039 138.5,390.5C 138.752,385.835 137.419,381.668 134.5,378C 136.315,376.3 137.315,374.134 137.5,371.5C 137.776,367.275 135.776,365.108 131.5,365C 127.848,364.501 124.182,364.335 120.5,364.5 Z"/></g>
<g><path style="opacity:1" fill="#b71614" d="M 300.5,365.5 C 313.471,360.834 320.471,365.5 321.5,379.5C 321.021,392.579 314.354,397.745 301.5,395C 298.438,393.939 295.938,392.106 294,389.5C 292.483,383.92 292.149,378.253 293,372.5C 294.736,369.261 297.236,366.927 300.5,365.5 Z M 303.5,371.5 C 311.619,371.314 314.619,375.314 312.5,383.5C 310.06,387.591 306.893,388.257 303,385.5C 300.946,380.727 301.113,376.061 303.5,371.5 Z"/></g>
<g><path style="opacity:0.62" fill="#af1e1e" d="M 303.5,371.5 C 301.113,376.061 300.946,380.727 303,385.5C 306.893,388.257 310.06,387.591 312.5,383.5C 312.863,385.911 311.863,387.411 309.5,388C 305.537,389.236 302.703,388.07 301,384.5C 300.501,380.179 300.334,375.846 300.5,371.5C 301.5,371.5 302.5,371.5 303.5,371.5 Z"/></g>
<g><path style="opacity:0.733" fill="#c54a3c" d="M 410.5,377.5 C 411.124,377.917 411.457,378.584 411.5,379.5C 411.036,382.349 410.369,385.016 409.5,387.5C 409.187,383.958 409.521,380.625 410.5,377.5 Z"/></g>
<g><path style="opacity:1" fill="#c20e0b" d="M 120.5,364.5 C 124.182,364.335 127.848,364.501 131.5,365C 135.776,365.108 137.776,367.275 137.5,371.5C 137.315,374.134 136.315,376.3 134.5,378C 137.419,381.668 138.752,385.835 138.5,390.5C 138.167,391.167 137.833,391.833 137.5,392.5C 132.537,393.496 127.537,393.663 122.5,393C 120.137,392.411 119.137,390.911 119.5,388.5C 123.042,388.813 126.375,388.479 129.5,387.5C 130.954,386.48 131.287,385.313 130.5,384C 127.833,383.667 125.167,383.333 122.5,383C 120.302,381.33 119.968,379.33 121.5,377C 124.544,376.637 127.544,376.137 130.5,375.5C 132.71,374.545 133.043,373.045 131.5,371C 127.247,370.8 123.08,370.3 119,369.5C 118.387,367.505 118.887,365.838 120.5,364.5 Z"/></g>
<g><path style="opacity:0.422" fill="#aa211d" d="M 228.5,371.5 C 228.666,378.841 228.5,386.174 228,393.5C 225.333,396.167 222.667,396.167 220,393.5C 219.667,386.833 219.333,380.167 219,373.5C 217.56,371.954 215.727,371.121 213.5,371C 209.832,368.436 209.832,366.103 213.5,364C 220.833,363.333 228.167,363.333 235.5,364C 237.673,365.865 238.007,368.031 236.5,370.5C 233.914,371.48 231.247,371.813 228.5,371.5 Z"/></g>
<g><path style="opacity:1" fill="#cc0b07" d="M 228.5,371.5 C 226.539,378.087 225.872,385.087 226.5,392.5C 224.5,392.5 222.5,392.5 220.5,392.5C 220.5,385.167 220.5,377.833 220.5,370.5C 218.208,370.756 216.041,370.423 214,369.5C 213.289,367.633 213.789,366.133 215.5,365C 221.833,364.333 228.167,364.333 234.5,365C 235.554,366.388 235.72,367.888 235,369.5C 232.723,370.117 230.556,370.784 228.5,371.5 Z"/></g>
<g><path style="opacity:1" fill="#ba0f0f" d="M 409.5,387.5 C 409.167,391.167 407.167,393.167 403.5,393.5C 400.031,394.7 396.698,394.7 393.5,393.5C 397.415,393.753 401.081,393.087 404.5,391.5C 404.785,389.712 404.452,388.045 403.5,386.5C 398.607,389.455 394.107,389.121 390,385.5C 389.412,380.472 389.578,375.472 390.5,370.5C 394.182,370.335 397.848,370.501 401.5,371C 403.057,374.978 403.89,379.145 404,383.5C 404.508,381.096 405.675,380.429 407.5,381.5C 408.169,383.631 408.835,385.631 409.5,387.5 Z M 393.5,371.5 C 400.249,369.915 403.249,372.582 402.5,379.5C 402.933,384.89 400.599,387.39 395.5,387C 393.667,386.5 392.5,385.333 392,383.5C 391.081,379.269 391.581,375.269 393.5,371.5 Z"/></g>
<g><path style="opacity:1" fill="#c90706" d="M 356.5,365.5 C 358.5,365.5 360.5,365.5 362.5,365.5C 362.336,368.187 362.503,370.854 363,373.5C 363.278,374.416 363.778,375.082 364.5,375.5C 366.833,375.5 369.167,375.5 371.5,375.5C 373.712,372.679 374.712,369.345 374.5,365.5C 376.144,365.286 377.644,365.62 379,366.5C 379.673,375.189 379.507,383.856 378.5,392.5C 376.712,392.785 375.045,392.452 373.5,391.5C 372.92,388.689 372.254,386.023 371.5,383.5C 370.848,382.275 369.681,381.608 368,381.5C 365.425,381.09 363.758,382.09 363,384.5C 362.503,387.146 362.336,389.813 362.5,392.5C 360.5,392.5 358.5,392.5 356.5,392.5C 356.5,383.5 356.5,374.5 356.5,365.5 Z"/></g>
<g><path style="opacity:0.173" fill="#952521" d="M 153.5,367.5 C 153.174,375.684 153.508,383.684 154.5,391.5C 155.11,392.391 155.443,393.391 155.5,394.5C 154.25,394.423 153.417,393.756 153,392.5C 152.177,383.99 152.343,375.656 153.5,367.5 Z"/></g>
<g><path style="opacity:1" fill="#a81d19" d="M 100.5,378.5 C 101.117,378.611 101.617,378.944 102,379.5C 103.254,388.248 99.7537,391.081 91.5,388C 88.3678,382.097 90.0345,378.263 96.5,376.5C 98.3545,376.34 99.6879,377.007 100.5,378.5 Z"/></g>
<g><path style="opacity:1" fill="#c70a0b" d="M 100.5,378.5 C 102.677,385.074 100.344,387.907 93.5,387C 90.5078,379.843 92.8411,377.01 100.5,378.5 Z"/></g>
<g><path style="opacity:0.071" fill="#a31a19" d="M 384.5,371.5 C 384.295,377.878 384.628,384.211 385.5,390.5C 381.998,384.324 381.665,377.99 384.5,371.5 Z"/></g>
<g><path style="opacity:1" fill="#b9100e" d="M 409.5,371.5 C 407.197,369.675 404.864,367.842 402.5,366C 399.167,365.333 395.833,365.333 392.5,366C 391.663,367.011 391.33,368.178 391.5,369.5C 389.856,369.286 388.356,369.62 387,370.5C 385.16,375.86 385.16,381.193 387,386.5C 389.482,387.624 389.982,389.29 388.5,391.5C 390.291,392.17 391.958,392.837 393.5,393.5C 392.167,393.5 390.833,393.5 389.5,393.5C 387.596,393.262 386.262,392.262 385.5,390.5C 384.628,384.211 384.295,377.878 384.5,371.5C 386.672,365.844 390.839,363.177 397,363.5C 403.161,363.177 407.328,365.844 409.5,371.5 Z"/></g>
<g><path style="opacity:1" fill="#a81a15" d="M 492.5,379.5 C 494.761,382.971 494.095,386.137 490.5,389C 485.203,390.521 481.869,388.688 480.5,383.5C 481.641,377.847 484.974,375.68 490.5,377C 491.756,377.417 492.423,378.25 492.5,379.5 Z"/></g>
<g><path style="opacity:1" fill="#c90c06" d="M 492.5,379.5 C 492.306,382.33 491.639,384.996 490.5,387.5C 485.131,387.96 482.631,385.627 483,380.5C 485.887,378.161 489.054,377.828 492.5,379.5 Z"/></g>
<g><path style="opacity:1" fill="#bb1210" d="M 189.5,365.5 C 187.404,367.433 185.904,369.767 185,372.5C 184.412,377.528 184.578,382.528 185.5,387.5C 187.124,387.36 188.29,388.027 189,389.5C 189.5,382.842 189.666,376.175 189.5,369.5C 193.371,369.185 197.038,369.518 200.5,370.5C 197.223,370.216 194.057,370.549 191,371.5C 190.185,376.352 190.352,381.019 191.5,385.5C 194.946,388.304 198.112,387.97 201,384.5C 201.629,380.129 201.463,375.796 200.5,371.5C 201.222,371.918 201.722,372.584 202,373.5C 202.667,377.5 202.667,381.5 202,385.5C 199.408,388.435 196.241,390.435 192.5,391.5C 195.784,392.657 199.118,392.824 202.5,392C 204.287,390.681 206.287,389.848 208.5,389.5C 208.573,391.027 207.906,392.027 206.5,392.5C 201.636,394.041 196.636,394.708 191.5,394.5C 184.552,392.089 181.219,387.089 181.5,379.5C 181.896,375.581 183.063,371.914 185,368.5C 186.129,366.859 187.629,365.859 189.5,365.5 Z M 200.5,371.5 C 201.463,375.796 201.629,380.129 201,384.5C 198.112,387.97 194.946,388.304 191.5,385.5C 191.353,380.786 191.686,376.119 192.5,371.5C 195.167,371.5 197.833,371.5 200.5,371.5 Z"/></g>
<g><path style="opacity:1" fill="#cd0707" d="M 300.5,365.5 C 304.857,365.586 309.19,365.92 313.5,366.5C 313.5,367.833 313.5,369.167 313.5,370.5C 311.658,370.277 309.825,369.943 308,369.5C 306.124,369.525 304.624,370.191 303.5,371.5C 302.5,371.5 301.5,371.5 300.5,371.5C 300.334,375.846 300.501,380.179 301,384.5C 302.703,388.07 305.537,389.236 309.5,388C 311.863,387.411 312.863,385.911 312.5,383.5C 314.729,382.945 316.395,381.611 317.5,379.5C 320.035,388.779 316.535,393.445 307,393.5C 303.412,393.245 300.079,392.245 297,390.5C 294.94,385.686 294.273,380.686 295,375.5C 297.062,372.277 298.896,368.943 300.5,365.5 Z"/></g>
<g><path style="opacity:1" fill="#b51613" d="M 155.5,394.5 C 155.443,393.391 155.11,392.391 154.5,391.5C 153.508,383.684 153.174,375.684 153.5,367.5C 153.574,365.589 154.574,364.422 156.5,364C 176.707,361.539 183.874,370.039 178,389.5C 174.209,393.932 169.376,395.932 163.5,395.5C 160.783,395.386 158.116,395.052 155.5,394.5 Z M 169.5,371.5 C 169.5,371.833 169.5,372.167 169.5,372.5C 172.843,378.456 171.843,383.456 166.5,387.5C 164.929,386.691 163.262,386.357 161.5,386.5C 161.5,381.5 161.5,376.5 161.5,371.5C 164.167,371.5 166.833,371.5 169.5,371.5 Z"/></g>
<g><path style="opacity:1" fill="#ca0405" d="M 169.5,372.5 C 169.5,372.167 169.5,371.833 169.5,371.5C 166.435,370.182 163.269,370.182 160,371.5C 159.501,377.491 159.334,383.491 159.5,389.5C 162.187,389.336 164.854,389.503 167.5,390C 167.957,390.414 168.291,390.914 168.5,391.5C 163.722,393.98 159.055,393.98 154.5,391.5C 154.334,383.826 154.5,376.159 155,368.5C 158.257,365.572 162.091,364.738 166.5,366C 176.89,368.43 180.723,374.93 178,385.5C 176.672,387.495 175.005,389.161 173,390.5C 172.5,390.167 172,389.833 171.5,389.5C 172.618,384.22 172.784,378.887 172,373.5C 171.329,372.748 170.496,372.414 169.5,372.5 Z M 169.5,371.5 C 169.5,371.833 169.5,372.167 169.5,372.5C 172.843,378.456 171.843,383.456 166.5,387.5C 164.929,386.691 163.262,386.357 161.5,386.5C 161.5,381.5 161.5,376.5 161.5,371.5C 164.167,371.5 166.833,371.5 169.5,371.5 Z"/></g>
<g><path style="opacity:0.976" fill="#a81916" d="M 129.5,387.5 C 126.375,388.479 123.042,388.813 119.5,388.5C 119.137,390.911 120.137,392.411 122.5,393C 127.537,393.663 132.537,393.496 137.5,392.5C 131.897,395.903 125.897,396.403 119.5,394C 117.38,392.477 117.047,390.644 118.5,388.5C 122.107,387.511 125.774,387.177 129.5,387.5 Z"/></g>
<g><path style="opacity:1" fill="#cb0808" d="M 409.5,371.5 C 410.461,373.265 410.795,375.265 410.5,377.5C 409.521,380.625 409.187,383.958 409.5,387.5C 408.835,385.631 408.169,383.631 407.5,381.5C 405.675,380.429 404.508,381.096 404,383.5C 403.89,379.145 403.057,374.978 401.5,371C 397.848,370.501 394.182,370.335 390.5,370.5C 389.578,375.472 389.412,380.472 390,385.5C 394.107,389.121 398.607,389.455 403.5,386.5C 404.452,388.045 404.785,389.712 404.5,391.5C 401.081,393.087 397.415,393.753 393.5,393.5C 391.958,392.837 390.291,392.17 388.5,391.5C 389.982,389.29 389.482,387.624 387,386.5C 385.16,381.193 385.16,375.86 387,370.5C 388.356,369.62 389.856,369.286 391.5,369.5C 391.33,368.178 391.663,367.011 392.5,366C 395.833,365.333 399.167,365.333 402.5,366C 404.864,367.842 407.197,369.675 409.5,371.5 Z M 393.5,371.5 C 391.581,375.269 391.081,379.269 392,383.5C 392.5,385.333 393.667,386.5 395.5,387C 400.599,387.39 402.933,384.89 402.5,379.5C 403.249,372.582 400.249,369.915 393.5,371.5 Z"/></g>
<g><path style="opacity:1" fill="#cd0707" d="M 422.5,385.5 C 422.414,386.496 422.748,387.329 423.5,388C 427.274,389.183 430.441,388.349 433,385.5C 434.354,381.637 434.854,377.637 434.5,373.5C 435.833,373.5 437.167,373.5 438.5,373.5C 438.666,378.179 438.499,382.845 438,387.5C 436.543,389.658 434.71,391.491 432.5,393C 427.056,393.636 421.722,393.136 416.5,391.5C 415.094,391.027 414.427,390.027 414.5,388.5C 414.334,383.489 414.501,378.489 415,373.5C 417.5,371.667 419.667,369.5 421.5,367C 424.045,366.385 426.378,366.885 428.5,368.5C 422.21,369.383 419.543,373.05 420.5,379.5C 420.539,381.952 421.206,383.952 422.5,385.5 Z"/></g>
<g><path style="opacity:1" fill="#ac1b1a" d="M 275.5,371.5 C 276.491,378.313 276.825,385.313 276.5,392.5C 278.5,392.5 280.5,392.5 282.5,392.5C 281.872,385.087 282.539,378.087 284.5,371.5C 284.804,372.15 285.137,372.817 285.5,373.5C 284.867,380.475 284.2,387.475 283.5,394.5C 280.709,396.04 278.209,395.706 276,393.5C 275.5,386.174 275.334,378.841 275.5,371.5 Z"/></g>
<g><path style="opacity:1" fill="#b3251d" d="M 356.5,365.5 C 356.5,374.5 356.5,383.5 356.5,392.5C 358.5,392.5 360.5,392.5 362.5,392.5C 362.336,389.813 362.503,387.146 363,384.5C 363.758,382.09 365.425,381.09 368,381.5C 369.681,381.608 370.848,382.275 371.5,383.5C 369.167,383.5 366.833,383.5 364.5,383.5C 364.665,386.85 364.498,390.183 364,393.5C 361.791,395.706 359.291,396.04 356.5,394.5C 355.177,384.675 355.177,375.008 356.5,365.5 Z"/></g>
<g><path style="opacity:0.924" fill="#a8191a" d="M 256.5,378.5 C 257.79,379.058 258.623,380.058 259,381.5C 260.038,393.439 254.538,397.939 242.5,395C 238.574,394.42 237.074,392.253 238,388.5C 238.804,387.196 239.971,386.529 241.5,386.5C 244.115,387.269 246.781,387.603 249.5,387.5C 246.375,388.479 243.042,388.813 239.5,388.5C 239.5,389.833 239.5,391.167 239.5,392.5C 241.808,392.914 244.142,393.247 246.5,393.5C 257.896,393.78 261.229,388.78 256.5,378.5 Z"/></g>
<g><path style="opacity:0.868" fill="#ab1b17" d="M 345.5,376.5 C 353.109,379.057 355.275,384.057 352,391.5C 350.786,393.049 349.286,394.215 347.5,395C 341.938,395.926 336.604,395.426 331.5,393.5C 331.201,391.396 331.534,389.396 332.5,387.5C 335.756,387.194 339.089,387.027 342.5,387C 343.167,386.667 343.833,386.333 344.5,386C 343.619,385.292 342.953,384.458 342.5,383.5C 343.5,383.5 344.5,383.5 345.5,383.5C 345.773,385.451 345.107,386.951 343.5,388C 339.848,388.499 336.182,388.665 332.5,388.5C 332.5,389.833 332.5,391.167 332.5,392.5C 337.463,393.496 342.463,393.663 347.5,393C 349.868,390.897 351.201,388.23 351.5,385C 349.411,382.237 347.411,379.404 345.5,376.5 Z"/></g>
<g><path style="opacity:0.757" fill="#aa2f27" d="M 458.5,371.5 C 458.611,372.117 458.944,372.617 459.5,373C 458.849,380.11 458.183,387.277 457.5,394.5C 452.159,396.911 449.825,395.245 450.5,389.5C 451.434,390.568 451.768,391.901 451.5,393.5C 453.5,393.5 455.5,393.5 457.5,393.5C 457.175,385.981 457.508,378.648 458.5,371.5 Z"/></g>
<g><path style="opacity:0.388" fill="#9e2226" d="M 206.5,392.5 C 205.4,393.558 204.066,394.392 202.5,395C 198.642,395.81 194.976,395.643 191.5,394.5C 196.636,394.708 201.636,394.041 206.5,392.5 Z"/></g>
<g><path style="opacity:0.392" fill="#9b2521" d="M 389.5,393.5 C 390.833,393.5 392.167,393.5 393.5,393.5C 396.698,394.7 400.031,394.7 403.5,393.5C 403.389,394.117 403.056,394.617 402.5,395C 400.667,395.167 398.833,395.333 397,395.5C 394.134,395.7 391.634,395.033 389.5,393.5 Z"/></g>
</svg>
